{
 "asset": {
  "version": "2.0",
  "generator": "examples/37-character/tools/make_heroes.py"
 },
 "scene": 0,
 "scenes": [
  {
   "nodes": [
    0,
    19
   ]
  }
 ],
 "nodes": [
  {
   "name": "hips",
   "translation": [
    0.0,
    0.52,
    0.0
   ],
   "children": [
    1,
    9,
    16
   ]
  },
  {
   "name": "spine",
   "translation": [
    0.0,
    0.07999999999999996,
    0.0
   ],
   "children": [
    2
   ]
  },
  {
   "name": "chest",
   "translation": [
    0.0,
    0.09999999999999998,
    0.0
   ],
   "children": [
    3,
    5,
    12
   ]
  },
  {
   "name": "neck",
   "translation": [
    0.0,
    0.13,
    0.0
   ],
   "children": [
    4
   ]
  },
  {
   "name": "head",
   "translation": [
    0.0,
    0.050000000000000044,
    0.0
   ]
  },
  {
   "name": "shoulder.L",
   "translation": [
    0.04,
    0.10000000000000009,
    0.0
   ],
   "rotation": [
    0.0,
    0.0,
    -0.7071067811865475,
    0.7071067811865475
   ],
   "children": [
    6
   ]
  },
  {
   "name": "upper_arm.L",
   "translation": [
    1.3877787807814457e-17,
    0.06999999999999999,
    0.0
   ],
   "rotation": [
    0.0,
    0.0,
    -0.34202014332566877,
    0.9396926207859083
   ],
   "children": [
    7
   ]
  },
  {
   "name": "forearm.L",
   "translation": [
    -2.7755575615628914e-17,
    0.17000000000000004,
    0.0
   ],
   "children": [
    8
   ]
  },
  {
   "name": "hand.L",
   "translation": [
    -8.326672684688674e-17,
    0.16000000000000003,
    0.0
   ]
  },
  {
   "name": "thigh.L",
   "translation": [
    0.06,
    -0.020000000000000018,
    0.0
   ],
   "rotation": [
    1.0,
    0.0,
    0.0,
    6.123233995736766e-17
   ],
   "children": [
    10
   ]
  },
  {
   "name": "shin.L",
   "translation": [
    0.0,
    0.21999999999999997,
    2.6942229581241766e-17
   ],
   "children": [
    11
   ]
  },
  {
   "name": "foot.L",
   "translation": [
    0.0,
    0.22000000000000003,
    2.6942229581241776e-17
   ],
   "rotation": [
    -0.7071067811865476,
    0.0,
    0.0,
    0.7071067811865476
   ]
  },
  {
   "name": "shoulder.R",
   "translation": [
    -0.04,
    0.10000000000000009,
    0.0
   ],
   "rotation": [
    0.0,
    0.0,
    0.7071067811865475,
    0.7071067811865475
   ],
   "children": [
    13
   ]
  },
  {
   "name": "upper_arm.R",
   "translation": [
    -1.3877787807814457e-17,
    0.06999999999999999,
    0.0
   ],
   "rotation": [
    0.0,
    0.0,
    0.34202014332566877,
    0.9396926207859083
   ],
   "children": [
    14
   ]
  },
  {
   "name": "forearm.R",
   "translation": [
    2.7755575615628914e-17,
    0.17000000000000004,
    0.0
   ],
   "children": [
    15
   ]
  },
  {
   "name": "hand.R",
   "translation": [
    8.326672684688674e-17,
    0.16000000000000003,
    0.0
   ]
  },
  {
   "name": "thigh.R",
   "translation": [
    -0.06,
    -0.020000000000000018,
    0.0
   ],
   "rotation": [
    1.0,
    0.0,
    0.0,
    6.123233995736766e-17
   ],
   "children": [
    17
   ]
  },
  {
   "name": "shin.R",
   "translation": [
    0.0,
    0.21999999999999997,
    2.6942229581241766e-17
   ],
   "children": [
    18
   ]
  },
  {
   "name": "foot.R",
   "translation": [
    0.0,
    0.22000000000000003,
    2.6942229581241776e-17
   ],
   "rotation": [
    -0.7071067811865476,
    0.0,
    0.0,
    0.7071067811865476
   ]
  },
  {
   "name": "Mesh",
   "mesh": 0,
   "skin": 0
  }
 ],
 "skins": [
  {
   "joints": [
    0,
    1,
    2,
    3,
    4,
    5,
    6,
    7,
    8,
    9,
    10,
    11,
    12,
    13,
    14,
    15,
    16,
    17,
    18
   ],
   "inverseBindMatrices": 7,
   "skeleton": 0
  }
 ],
 "materials": [
  {
   "name": "Body",
   "pbrMetallicRoughness": {
    "baseColorFactor": [
     0.25,
     0.62,
     0.3,
     1.0
    ],
    "metallicFactor": 0.0,
    "roughnessFactor": 0.75
   }
  },
  {
   "name": "Skin",
   "pbrMetallicRoughness": {
    "baseColorFactor": [
     0.87,
     0.72,
     0.58,
     1.0
    ],
    "metallicFactor": 0.0,
    "roughnessFactor": 0.7
   }
  },
  {
   "name": "Dark",
   "pbrMetallicRoughness": {
    "baseColorFactor": [
     0.11,
     0.11,
     0.13,
     1.0
    ],
    "metallicFactor": 0.0,
    "roughnessFactor": 0.6
   }
  }
 ],
 "meshes": [
  {
   "name": "Mesh",
   "primitives": [
    {
     "attributes": {
      "POSITION": 0,
      "NORMAL": 1,
      "JOINTS_0": 2,
      "WEIGHTS_0": 3
     },
     "indices": 4,
     "material": 0
    },
    {
     "attributes": {
      "POSITION": 0,
      "NORMAL": 1,
      "JOINTS_0": 2,
      "WEIGHTS_0": 3
     },
     "indices": 5,
     "material": 1
    },
    {
     "attributes": {
      "POSITION": 0,
      "NORMAL": 1,
      "JOINTS_0": 2,
      "WEIGHTS_0": 3
     },
     "indices": 6,
     "material": 2
    }
   ]
  }
 ],
 "buffers": [
  {
   "byteLength": 23248,
   "uri": "data:application/octet-stream;base64,"
  }
 ],
 "bufferViews": [
  {
   "buffer": 0,
   "byteOffset": 0,
   "byteLength": 5184
  },
  {
   "buffer": 0,
   "byteOffset": 5184,
   "byteLength": 5184
  },
  {
   "buffer": 0,
   "byteOffset": 10368,
   "byteLength": 3456
  },
  {
   "buffer": 0,
   "byteOffset": 13824,
   "byteLength": 6912
  },
  {
   "buffer": 0,
   "byteOffset": 20736,
   "byteLength": 576
  },
  {
   "buffer": 0,
   "byteOffset": 21312,
   "byteLength": 432
  },
  {
   "buffer": 0,
   "byteOffset": 21744,
   "byteLength": 288
  },
  {
   "buffer": 0,
   "byteOffset": 22032,
   "byteLength": 1216
  }
 ],
 "accessors": [
  {
   "bufferView": 0,
   "componentType": 5126,
   "count": 432,
   "type": "VEC3",
   "min": [
    -0.4279879542219489,
    0.0,
    -0.15
   ],
   "max": [
    0.4279879542219489,
    1.18,
    0.1725
   ]
  },
  {
   "bufferView": 1,
   "componentType": 5126,
   "count": 432,
   "type": "VEC3"
  },
  {
   "bufferView": 2,
   "componentType": 5123,
   "count": 432,
   "type": "VEC4"
  },
  {
   "bufferView": 3,
   "componentType": 5126,
   "count": 432,
   "type": "VEC4"
  },
  {
   "bufferView": 4,
   "componentType": 5123,
   "count": 288,
   "type": "SCALAR"
  },
  {
   "bufferView": 5,
   "componentType": 5123,
   "count": 216,
   "type": "SCALAR"
  },
  {
   "bufferView": 6,
   "componentType": 5123,
   "count": 144,
   "type": "SCALAR"
  },
  {
   "bufferView": 7,
   "componentType": 5126,
   "count": 19,
   "type": "MAT4"
  }
 ]
}
