{
 "asset": {
  "version": "2.0",
  "generator": "examples/37-character/tools/make_heroes.py"
 },
 "scene": 0,
 "scenes": [
  {
   "nodes": [
    0,
    19
   ]
  }
 ],
 "nodes": [
  {
   "name": "pelvis",
   "translation": [
    0.0,
    0.7,
    0.0
   ],
   "children": [
    1,
    9,
    16
   ]
  },
  {
   "name": "spine_01",
   "translation": [
    0.0,
    0.12,
    0.0
   ],
   "children": [
    2
   ]
  },
  {
   "name": "spine_02",
   "translation": [
    0.0,
    0.16000000000000003,
    0.0
   ],
   "children": [
    3,
    5,
    12
   ]
  },
  {
   "name": "neck_01",
   "translation": [
    0.0,
    0.20999999999999996,
    0.0
   ],
   "children": [
    4
   ]
  },
  {
   "name": "head",
   "translation": [
    0.0,
    0.08000000000000007,
    0.0
   ]
  },
  {
   "name": "clavicle_l",
   "translation": [
    0.1,
    0.15999999999999992,
    0.0
   ],
   "children": [
    6
   ]
  },
  {
   "name": "upperarm_l",
   "translation": [
    0.21,
    0.0,
    0.0
   ],
   "children": [
    7
   ]
  },
  {
   "name": "lowerarm_l",
   "translation": [
    0.32,
    0.0,
    0.0
   ],
   "children": [
    8
   ]
  },
  {
   "name": "hand_l",
   "translation": [
    0.31999999999999995,
    0.0,
    0.0
   ]
  },
  {
   "name": "thigh_l",
   "translation": [
    0.15,
    -0.039999999999999925,
    0.0
   ],
   "children": [
    10
   ]
  },
  {
   "name": "calf_l",
   "translation": [
    0.0,
    -0.29000000000000004,
    0.0
   ],
   "children": [
    11
   ]
  },
  {
   "name": "foot_l",
   "translation": [
    0.0,
    -0.29,
    0.0
   ]
  },
  {
   "name": "clavicle_r",
   "translation": [
    -0.1,
    0.15999999999999992,
    0.0
   ],
   "children": [
    13
   ]
  },
  {
   "name": "upperarm_r",
   "translation": [
    -0.21,
    0.0,
    0.0
   ],
   "children": [
    14
   ]
  },
  {
   "name": "lowerarm_r",
   "translation": [
    -0.32,
    0.0,
    0.0
   ],
   "children": [
    15
   ]
  },
  {
   "name": "hand_r",
   "translation": [
    -0.31999999999999995,
    0.0,
    0.0
   ]
  },
  {
   "name": "thigh_r",
   "translation": [
    -0.15,
    -0.039999999999999925,
    0.0
   ],
   "children": [
    17
   ]
  },
  {
   "name": "calf_r",
   "translation": [
    0.0,
    -0.29000000000000004,
    0.0
   ],
   "children": [
    18
   ]
  },
  {
   "name": "foot_r",
   "translation": [
    0.0,
    -0.29,
    0.0
   ]
  },
  {
   "name": "Mesh",
   "mesh": 0,
   "skin": 0
  }
 ],
 "skins": [
  {
   "joints": [
    0,
    1,
    2,
    3,
    4,
    5,
    6,
    7,
    8,
    9,
    10,
    11,
    12,
    13,
    14,
    15,
    16,
    17,
    18
   ],
   "inverseBindMatrices": 7,
   "skeleton": 0
  }
 ],
 "materials": [
  {
   "name": "Body",
   "pbrMetallicRoughness": {
    "baseColorFactor": [
     0.8,
     0.33,
     0.16,
     1.0
    ],
    "metallicFactor": 0.0,
    "roughnessFactor": 0.75
   }
  },
  {
   "name": "Skin",
   "pbrMetallicRoughness": {
    "baseColorFactor": [
     0.87,
     0.72,
     0.58,
     1.0
    ],
    "metallicFactor": 0.0,
    "roughnessFactor": 0.7
   }
  },
  {
   "name": "Dark",
   "pbrMetallicRoughness": {
    "baseColorFactor": [
     0.11,
     0.11,
     0.13,
     1.0
    ],
    "metallicFactor": 0.0,
    "roughnessFactor": 0.6
   }
  }
 ],
 "meshes": [
  {
   "name": "Mesh",
   "primitives": [
    {
     "attributes": {
      "POSITION": 0,
      "NORMAL": 1,
      "JOINTS_0": 2,
      "WEIGHTS_0": 3
     },
     "indices": 4,
     "material": 0
    },
    {
     "attributes": {
      "POSITION": 0,
      "NORMAL": 1,
      "JOINTS_0": 2,
      "WEIGHTS_0": 3
     },
     "indices": 5,
     "material": 1
    },
    {
     "attributes": {
      "POSITION": 0,
      "NORMAL": 1,
      "JOINTS_0": 2,
      "WEIGHTS_0": 3
     },
     "indices": 6,
     "material": 2
    }
   ]
  }
 ],
 "buffers": [
  {
   "byteLength": 23248,
   "uri": "data:application/octet-stream;base64,"
  }
 ],
 "bufferViews": [
  {
   "buffer": 0,
   "byteOffset": 0,
   "byteLength": 5184
  },
  {
   "buffer": 0,
   "byteOffset": 5184,
   "byteLength": 5184
  },
  {
   "buffer": 0,
   "byteOffset": 10368,
   "byteLength": 3456
  },
  {
   "buffer": 0,
   "byteOffset": 13824,
   "byteLength": 6912
  },
  {
   "buffer": 0,
   "byteOffset": 20736,
   "byteLength": 576
  },
  {
   "buffer": 0,
   "byteOffset": 21312,
   "byteLength": 432
  },
  {
   "buffer": 0,
   "byteOffset": 21744,
   "byteLength": 288
  },
  {
   "buffer": 0,
   "byteOffset": 22032,
   "byteLength": 1216
  }
 ],
 "accessors": [
  {
   "bufferView": 0,
   "componentType": 5126,
   "count": 432,
   "type": "VEC3",
   "min": [
    -1.0899999999999999,
    0.0,
    -0.15
   ],
   "max": [
    1.0899999999999999,
    1.5,
    0.24
   ]
  },
  {
   "bufferView": 1,
   "componentType": 5126,
   "count": 432,
   "type": "VEC3"
  },
  {
   "bufferView": 2,
   "componentType": 5123,
   "count": 432,
   "type": "VEC4"
  },
  {
   "bufferView": 3,
   "componentType": 5126,
   "count": 432,
   "type": "VEC4"
  },
  {
   "bufferView": 4,
   "componentType": 5123,
   "count": 288,
   "type": "SCALAR"
  },
  {
   "bufferView": 5,
   "componentType": 5123,
   "count": 216,
   "type": "SCALAR"
  },
  {
   "bufferView": 6,
   "componentType": 5123,
   "count": 144,
   "type": "SCALAR"
  },
  {
   "bufferView": 7,
   "componentType": 5126,
   "count": 19,
   "type": "MAT4"
  }
 ]
}
