{
 "asset": {
  "version": "2.0",
  "generator": "examples/37-character/tools/make_heroes.py"
 },
 "scene": 0,
 "scenes": [
  {
   "nodes": [
    0,
    19
   ]
  }
 ],
 "nodes": [
  {
   "name": "Hips",
   "translation": [
    0.0,
    1.16,
    0.0
   ],
   "children": [
    1,
    9,
    16
   ]
  },
  {
   "name": "Spine",
   "translation": [
    0.0,
    0.17000000000000015,
    0.0
   ],
   "children": [
    2
   ]
  },
  {
   "name": "Chest",
   "translation": [
    0.0,
    0.20999999999999996,
    0.0
   ],
   "children": [
    3,
    5,
    12
   ]
  },
  {
   "name": "Neck",
   "translation": [
    0.0,
    0.24,
    0.0
   ],
   "children": [
    4
   ]
  },
  {
   "name": "Head",
   "translation": [
    0.0,
    0.10999999999999988,
    0.0
   ]
  },
  {
   "name": "LeftShoulder",
   "translation": [
    0.06,
    0.18999999999999995,
    0.0
   ],
   "children": [
    6
   ]
  },
  {
   "name": "LeftUpperArm",
   "translation": [
    0.11000000000000001,
    0.0,
    0.0
   ],
   "children": [
    7
   ]
  },
  {
   "name": "LeftLowerArm",
   "translation": [
    0.35,
    0.0,
    0.0
   ],
   "children": [
    8
   ]
  },
  {
   "name": "LeftHand",
   "translation": [
    0.3400000000000001,
    0.0,
    0.0
   ]
  },
  {
   "name": "LeftUpperLeg",
   "translation": [
    0.085,
    -0.030000000000000027,
    0.0
   ],
   "children": [
    10
   ]
  },
  {
   "name": "LeftLowerLeg",
   "translation": [
    0.0,
    -0.5199999999999999,
    0.0
   ],
   "children": [
    11
   ]
  },
  {
   "name": "LeftFoot",
   "translation": [
    0.0,
    -0.52,
    0.0
   ]
  },
  {
   "name": "RightShoulder",
   "translation": [
    -0.06,
    0.18999999999999995,
    0.0
   ],
   "children": [
    13
   ]
  },
  {
   "name": "RightUpperArm",
   "translation": [
    -0.11000000000000001,
    0.0,
    0.0
   ],
   "children": [
    14
   ]
  },
  {
   "name": "RightLowerArm",
   "translation": [
    -0.35,
    0.0,
    0.0
   ],
   "children": [
    15
   ]
  },
  {
   "name": "RightHand",
   "translation": [
    -0.3400000000000001,
    0.0,
    0.0
   ]
  },
  {
   "name": "RightUpperLeg",
   "translation": [
    -0.085,
    -0.030000000000000027,
    0.0
   ],
   "children": [
    17
   ]
  },
  {
   "name": "RightLowerLeg",
   "translation": [
    0.0,
    -0.5199999999999999,
    0.0
   ],
   "children": [
    18
   ]
  },
  {
   "name": "RightFoot",
   "translation": [
    0.0,
    -0.52,
    0.0
   ]
  },
  {
   "name": "Mesh",
   "mesh": 0,
   "skin": 0
  }
 ],
 "skins": [
  {
   "joints": [
    0,
    1,
    2,
    3,
    4,
    5,
    6,
    7,
    8,
    9,
    10,
    11,
    12,
    13,
    14,
    15,
    16,
    17,
    18
   ],
   "inverseBindMatrices": 7,
   "skeleton": 0
  }
 ],
 "materials": [
  {
   "name": "Body",
   "pbrMetallicRoughness": {
    "baseColorFactor": [
     0.2,
     0.42,
     0.8,
     1.0
    ],
    "metallicFactor": 0.0,
    "roughnessFactor": 0.75
   }
  },
  {
   "name": "Skin",
   "pbrMetallicRoughness": {
    "baseColorFactor": [
     0.87,
     0.72,
     0.58,
     1.0
    ],
    "metallicFactor": 0.0,
    "roughnessFactor": 0.7
   }
  },
  {
   "name": "Dark",
   "pbrMetallicRoughness": {
    "baseColorFactor": [
     0.11,
     0.11,
     0.13,
     1.0
    ],
    "metallicFactor": 0.0,
    "roughnessFactor": 0.6
   }
  }
 ],
 "meshes": [
  {
   "name": "Mesh",
   "primitives": [
    {
     "attributes": {
      "POSITION": 0,
      "NORMAL": 1,
      "JOINTS_0": 2,
      "WEIGHTS_0": 3
     },
     "indices": 4,
     "material": 0
    },
    {
     "attributes": {
      "POSITION": 0,
      "NORMAL": 1,
      "JOINTS_0": 2,
      "WEIGHTS_0": 3
     },
     "indices": 5,
     "material": 1
    },
    {
     "attributes": {
      "POSITION": 0,
      "NORMAL": 1,
      "JOINTS_0": 2,
      "WEIGHTS_0": 3
     },
     "indices": 6,
     "material": 2
    }
   ]
  }
 ],
 "buffers": [
  {
   "byteLength": 23248,
   "uri": "data:application/octet-stream;base64,"
  }
 ],
 "bufferViews": [
  {
   "buffer": 0,
   "byteOffset": 0,
   "byteLength": 5184
  },
  {
   "buffer": 0,
   "byteOffset": 5184,
   "byteLength": 5184
  },
  {
   "buffer": 0,
   "byteOffset": 10368,
   "byteLength": 3456
  },
  {
   "buffer": 0,
   "byteOffset": 13824,
   "byteLength": 6912
  },
  {
   "buffer": 0,
   "byteOffset": 20736,
   "byteLength": 576
  },
  {
   "buffer": 0,
   "byteOffset": 21312,
   "byteLength": 432
  },
  {
   "buffer": 0,
   "byteOffset": 21744,
   "byteLength": 288
  },
  {
   "buffer": 0,
   "byteOffset": 22032,
   "byteLength": 1216
  }
 ],
 "accessors": [
  {
   "bufferView": 0,
   "componentType": 5126,
   "count": 432,
   "type": "VEC3",
   "min": [
    -0.9800000000000001,
    0.0,
    -0.1
   ],
   "max": [
    0.9800000000000001,
    2.12,
    0.165
   ]
  },
  {
   "bufferView": 1,
   "componentType": 5126,
   "count": 432,
   "type": "VEC3"
  },
  {
   "bufferView": 2,
   "componentType": 5123,
   "count": 432,
   "type": "VEC4"
  },
  {
   "bufferView": 3,
   "componentType": 5126,
   "count": 432,
   "type": "VEC4"
  },
  {
   "bufferView": 4,
   "componentType": 5123,
   "count": 288,
   "type": "SCALAR"
  },
  {
   "bufferView": 5,
   "componentType": 5123,
   "count": 216,
   "type": "SCALAR"
  },
  {
   "bufferView": 6,
   "componentType": 5123,
   "count": 144,
   "type": "SCALAR"
  },
  {
   "bufferView": 7,
   "componentType": 5126,
   "count": 19,
   "type": "MAT4"
  }
 ]
}
