{
 "asset": {
  "version": "2.0",
  "generator": "examples/37-character/tools/make_clips.py"
 },
 "scene": 0,
 "scenes": [
  {
   "nodes": [
    0,
    19
   ]
  }
 ],
 "nodes": [
  {
   "name": "Hips",
   "translation": [
    0.0,
    0.95,
    0.0
   ],
   "children": [
    1,
    9,
    16
   ]
  },
  {
   "name": "Spine",
   "translation": [
    0.0,
    0.15000000000000013,
    0.0
   ],
   "children": [
    2
   ]
  },
  {
   "name": "Chest",
   "translation": [
    0.0,
    0.17999999999999994,
    0.0
   ],
   "children": [
    3,
    5,
    12
   ]
  },
  {
   "name": "Neck",
   "translation": [
    0.0,
    0.19999999999999996,
    0.0
   ],
   "children": [
    4
   ]
  },
  {
   "name": "Head",
   "translation": [
    0.0,
    0.10000000000000009,
    0.0
   ]
  },
  {
   "name": "LeftShoulder",
   "translation": [
    0.07,
    0.15999999999999992,
    0.0
   ],
   "children": [
    6
   ]
  },
  {
   "name": "LeftUpperArm",
   "translation": [
    0.12,
    0.0,
    0.0
   ],
   "children": [
    7
   ]
  },
  {
   "name": "LeftLowerArm",
   "translation": [
    0.27999999999999997,
    0.0,
    0.0
   ],
   "children": [
    8
   ]
  },
  {
   "name": "LeftHand",
   "translation": [
    0.26,
    0.0,
    0.0
   ]
  },
  {
   "name": "LeftUpperLeg",
   "translation": [
    0.1,
    -0.029999999999999916,
    0.0
   ],
   "children": [
    10
   ]
  },
  {
   "name": "LeftLowerLeg",
   "translation": [
    0.0,
    -0.42000000000000004,
    0.0
   ],
   "children": [
    11
   ]
  },
  {
   "name": "LeftFoot",
   "translation": [
    0.0,
    -0.42,
    0.0
   ]
  },
  {
   "name": "RightShoulder",
   "translation": [
    -0.07,
    0.15999999999999992,
    0.0
   ],
   "children": [
    13
   ]
  },
  {
   "name": "RightUpperArm",
   "translation": [
    -0.12,
    0.0,
    0.0
   ],
   "children": [
    14
   ]
  },
  {
   "name": "RightLowerArm",
   "translation": [
    -0.27999999999999997,
    0.0,
    0.0
   ],
   "children": [
    15
   ]
  },
  {
   "name": "RightHand",
   "translation": [
    -0.26,
    0.0,
    0.0
   ]
  },
  {
   "name": "RightUpperLeg",
   "translation": [
    -0.1,
    -0.029999999999999916,
    0.0
   ],
   "children": [
    17
   ]
  },
  {
   "name": "RightLowerLeg",
   "translation": [
    0.0,
    -0.42000000000000004,
    0.0
   ],
   "children": [
    18
   ]
  },
  {
   "name": "RightFoot",
   "translation": [
    0.0,
    -0.42,
    0.0
   ]
  },
  {
   "name": "Mesh",
   "mesh": 0,
   "skin": 0
  }
 ],
 "skins": [
  {
   "joints": [
    0,
    1,
    2,
    3,
    4,
    5,
    6,
    7,
    8,
    9,
    10,
    11,
    12,
    13,
    14,
    15,
    16,
    17,
    18
   ],
   "inverseBindMatrices": 5,
   "skeleton": 0
  }
 ],
 "materials": [
  {
   "name": "Placeholder",
   "pbrMetallicRoughness": {
    "baseColorFactor": [
     0.5,
     0.5,
     0.5,
     1.0
    ],
    "metallicFactor": 0.0,
    "roughnessFactor": 0.9
   }
  }
 ],
 "meshes": [
  {
   "name": "Mesh",
   "primitives": [
    {
     "attributes": {
      "POSITION": 0,
      "NORMAL": 1,
      "JOINTS_0": 2,
      "WEIGHTS_0": 3
     },
     "indices": 4,
     "material": 0
    }
   ]
  }
 ],
 "buffers": [
  {
   "byteLength": 40424,
   "uri": "data:application/octet-stream;base64,"
  }
 ],
 "bufferViews": [
  {
   "buffer": 0,
   "byteOffset": 0,
   "byteLength": 288
  },
  {
   "buffer": 0,
   "byteOffset": 288,
   "byteLength": 288
  },
  {
   "buffer": 0,
   "byteOffset": 576,
   "byteLength": 192
  },
  {
   "buffer": 0,
   "byteOffset": 768,
   "byteLength": 384
  },
  {
   "buffer": 0,
   "byteOffset": 1152,
   "byteLength": 72
  },
  {
   "buffer": 0,
   "byteOffset": 1224,
   "byteLength": 1216
  },
  {
   "buffer": 0,
   "byteOffset": 2440,
   "byteLength": 68
  },
  {
   "buffer": 0,
   "byteOffset": 2508,
   "byteLength": 272
  },
  {
   "buffer": 0,
   "byteOffset": 2780,
   "byteLength": 272
  },
  {
   "buffer": 0,
   "byteOffset": 3052,
   "byteLength": 272
  },
  {
   "buffer": 0,
   "byteOffset": 3324,
   "byteLength": 272
  },
  {
   "buffer": 0,
   "byteOffset": 3596,
   "byteLength": 272
  },
  {
   "buffer": 0,
   "byteOffset": 3868,
   "byteLength": 272
  },
  {
   "buffer": 0,
   "byteOffset": 4140,
   "byteLength": 272
  },
  {
   "buffer": 0,
   "byteOffset": 4412,
   "byteLength": 272
  },
  {
   "buffer": 0,
   "byteOffset": 4684,
   "byteLength": 272
  },
  {
   "buffer": 0,
   "byteOffset": 4956,
   "byteLength": 272
  },
  {
   "buffer": 0,
   "byteOffset": 5228,
   "byteLength": 272
  },
  {
   "buffer": 0,
   "byteOffset": 5500,
   "byteLength": 272
  },
  {
   "buffer": 0,
   "byteOffset": 5772,
   "byteLength": 272
  },
  {
   "buffer": 0,
   "byteOffset": 6044,
   "byteLength": 272
  },
  {
   "buffer": 0,
   "byteOffset": 6316,
   "byteLength": 272
  },
  {
   "buffer": 0,
   "byteOffset": 6588,
   "byteLength": 272
  },
  {
   "buffer": 0,
   "byteOffset": 6860,
   "byteLength": 272
  },
  {
   "buffer": 0,
   "byteOffset": 7132,
   "byteLength": 272
  },
  {
   "buffer": 0,
   "byteOffset": 7404,
   "byteLength": 272
  },
  {
   "buffer": 0,
   "byteOffset": 7676,
   "byteLength": 204
  },
  {
   "buffer": 0,
   "byteOffset": 7880,
   "byteLength": 68
  },
  {
   "buffer": 0,
   "byteOffset": 7948,
   "byteLength": 272
  },
  {
   "buffer": 0,
   "byteOffset": 8220,
   "byteLength": 272
  },
  {
   "buffer": 0,
   "byteOffset": 8492,
   "byteLength": 272
  },
  {
   "buffer": 0,
   "byteOffset": 8764,
   "byteLength": 272
  },
  {
   "buffer": 0,
   "byteOffset": 9036,
   "byteLength": 272
  },
  {
   "buffer": 0,
   "byteOffset": 9308,
   "byteLength": 272
  },
  {
   "buffer": 0,
   "byteOffset": 9580,
   "byteLength": 272
  },
  {
   "buffer": 0,
   "byteOffset": 9852,
   "byteLength": 272
  },
  {
   "buffer": 0,
   "byteOffset": 10124,
   "byteLength": 272
  },
  {
   "buffer": 0,
   "byteOffset": 10396,
   "byteLength": 272
  },
  {
   "buffer": 0,
   "byteOffset": 10668,
   "byteLength": 272
  },
  {
   "buffer": 0,
   "byteOffset": 10940,
   "byteLength": 272
  },
  {
   "buffer": 0,
   "byteOffset": 11212,
   "byteLength": 272
  },
  {
   "buffer": 0,
   "byteOffset": 11484,
   "byteLength": 272
  },
  {
   "buffer": 0,
   "byteOffset": 11756,
   "byteLength": 272
  },
  {
   "buffer": 0,
   "byteOffset": 12028,
   "byteLength": 272
  },
  {
   "buffer": 0,
   "byteOffset": 12300,
   "byteLength": 272
  },
  {
   "buffer": 0,
   "byteOffset": 12572,
   "byteLength": 272
  },
  {
   "buffer": 0,
   "byteOffset": 12844,
   "byteLength": 272
  },
  {
   "buffer": 0,
   "byteOffset": 13116,
   "byteLength": 204
  },
  {
   "buffer": 0,
   "byteOffset": 13320,
   "byteLength": 68
  },
  {
   "buffer": 0,
   "byteOffset": 13388,
   "byteLength": 272
  },
  {
   "buffer": 0,
   "byteOffset": 13660,
   "byteLength": 272
  },
  {
   "buffer": 0,
   "byteOffset": 13932,
   "byteLength": 272
  },
  {
   "buffer": 0,
   "byteOffset": 14204,
   "byteLength": 272
  },
  {
   "buffer": 0,
   "byteOffset": 14476,
   "byteLength": 272
  },
  {
   "buffer": 0,
   "byteOffset": 14748,
   "byteLength": 272
  },
  {
   "buffer": 0,
   "byteOffset": 15020,
   "byteLength": 272
  },
  {
   "buffer": 0,
   "byteOffset": 15292,
   "byteLength": 272
  },
  {
   "buffer": 0,
   "byteOffset": 15564,
   "byteLength": 272
  },
  {
   "buffer": 0,
   "byteOffset": 15836,
   "byteLength": 272
  },
  {
   "buffer": 0,
   "byteOffset": 16108,
   "byteLength": 272
  },
  {
   "buffer": 0,
   "byteOffset": 16380,
   "byteLength": 272
  },
  {
   "buffer": 0,
   "byteOffset": 16652,
   "byteLength": 272
  },
  {
   "buffer": 0,
   "byteOffset": 16924,
   "byteLength": 272
  },
  {
   "buffer": 0,
   "byteOffset": 17196,
   "byteLength": 272
  },
  {
   "buffer": 0,
   "byteOffset": 17468,
   "byteLength": 272
  },
  {
   "buffer": 0,
   "byteOffset": 17740,
   "byteLength": 272
  },
  {
   "buffer": 0,
   "byteOffset": 18012,
   "byteLength": 272
  },
  {
   "buffer": 0,
   "byteOffset": 18284,
   "byteLength": 272
  },
  {
   "buffer": 0,
   "byteOffset": 18556,
   "byteLength": 204
  },
  {
   "buffer": 0,
   "byteOffset": 18760,
   "byteLength": 68
  },
  {
   "buffer": 0,
   "byteOffset": 18828,
   "byteLength": 272
  },
  {
   "buffer": 0,
   "byteOffset": 19100,
   "byteLength": 272
  },
  {
   "buffer": 0,
   "byteOffset": 19372,
   "byteLength": 272
  },
  {
   "buffer": 0,
   "byteOffset": 19644,
   "byteLength": 272
  },
  {
   "buffer": 0,
   "byteOffset": 19916,
   "byteLength": 272
  },
  {
   "buffer": 0,
   "byteOffset": 20188,
   "byteLength": 272
  },
  {
   "buffer": 0,
   "byteOffset": 20460,
   "byteLength": 272
  },
  {
   "buffer": 0,
   "byteOffset": 20732,
   "byteLength": 272
  },
  {
   "buffer": 0,
   "byteOffset": 21004,
   "byteLength": 272
  },
  {
   "buffer": 0,
   "byteOffset": 21276,
   "byteLength": 272
  },
  {
   "buffer": 0,
   "byteOffset": 21548,
   "byteLength": 272
  },
  {
   "buffer": 0,
   "byteOffset": 21820,
   "byteLength": 272
  },
  {
   "buffer": 0,
   "byteOffset": 22092,
   "byteLength": 272
  },
  {
   "buffer": 0,
   "byteOffset": 22364,
   "byteLength": 272
  },
  {
   "buffer": 0,
   "byteOffset": 22636,
   "byteLength": 272
  },
  {
   "buffer": 0,
   "byteOffset": 22908,
   "byteLength": 272
  },
  {
   "buffer": 0,
   "byteOffset": 23180,
   "byteLength": 272
  },
  {
   "buffer": 0,
   "byteOffset": 23452,
   "byteLength": 272
  },
  {
   "buffer": 0,
   "byteOffset": 23724,
   "byteLength": 272
  },
  {
   "buffer": 0,
   "byteOffset": 23996,
   "byteLength": 204
  },
  {
   "buffer": 0,
   "byteOffset": 24200,
   "byteLength": 68
  },
  {
   "buffer": 0,
   "byteOffset": 24268,
   "byteLength": 272
  },
  {
   "buffer": 0,
   "byteOffset": 24540,
   "byteLength": 272
  },
  {
   "buffer": 0,
   "byteOffset": 24812,
   "byteLength": 272
  },
  {
   "buffer": 0,
   "byteOffset": 25084,
   "byteLength": 272
  },
  {
   "buffer": 0,
   "byteOffset": 25356,
   "byteLength": 272
  },
  {
   "buffer": 0,
   "byteOffset": 25628,
   "byteLength": 272
  },
  {
   "buffer": 0,
   "byteOffset": 25900,
   "byteLength": 272
  },
  {
   "buffer": 0,
   "byteOffset": 26172,
   "byteLength": 272
  },
  {
   "buffer": 0,
   "byteOffset": 26444,
   "byteLength": 272
  },
  {
   "buffer": 0,
   "byteOffset": 26716,
   "byteLength": 272
  },
  {
   "buffer": 0,
   "byteOffset": 26988,
   "byteLength": 272
  },
  {
   "buffer": 0,
   "byteOffset": 27260,
   "byteLength": 272
  },
  {
   "buffer": 0,
   "byteOffset": 27532,
   "byteLength": 272
  },
  {
   "buffer": 0,
   "byteOffset": 27804,
   "byteLength": 272
  },
  {
   "buffer": 0,
   "byteOffset": 28076,
   "byteLength": 272
  },
  {
   "buffer": 0,
   "byteOffset": 28348,
   "byteLength": 272
  },
  {
   "buffer": 0,
   "byteOffset": 28620,
   "byteLength": 272
  },
  {
   "buffer": 0,
   "byteOffset": 28892,
   "byteLength": 272
  },
  {
   "buffer": 0,
   "byteOffset": 29164,
   "byteLength": 272
  },
  {
   "buffer": 0,
   "byteOffset": 29436,
   "byteLength": 204
  },
  {
   "buffer": 0,
   "byteOffset": 29640,
   "byteLength": 68
  },
  {
   "buffer": 0,
   "byteOffset": 29708,
   "byteLength": 272
  },
  {
   "buffer": 0,
   "byteOffset": 29980,
   "byteLength": 272
  },
  {
   "buffer": 0,
   "byteOffset": 30252,
   "byteLength": 272
  },
  {
   "buffer": 0,
   "byteOffset": 30524,
   "byteLength": 272
  },
  {
   "buffer": 0,
   "byteOffset": 30796,
   "byteLength": 272
  },
  {
   "buffer": 0,
   "byteOffset": 31068,
   "byteLength": 272
  },
  {
   "buffer": 0,
   "byteOffset": 31340,
   "byteLength": 272
  },
  {
   "buffer": 0,
   "byteOffset": 31612,
   "byteLength": 272
  },
  {
   "buffer": 0,
   "byteOffset": 31884,
   "byteLength": 272
  },
  {
   "buffer": 0,
   "byteOffset": 32156,
   "byteLength": 272
  },
  {
   "buffer": 0,
   "byteOffset": 32428,
   "byteLength": 272
  },
  {
   "buffer": 0,
   "byteOffset": 32700,
   "byteLength": 272
  },
  {
   "buffer": 0,
   "byteOffset": 32972,
   "byteLength": 272
  },
  {
   "buffer": 0,
   "byteOffset": 33244,
   "byteLength": 272
  },
  {
   "buffer": 0,
   "byteOffset": 33516,
   "byteLength": 272
  },
  {
   "buffer": 0,
   "byteOffset": 33788,
   "byteLength": 272
  },
  {
   "buffer": 0,
   "byteOffset": 34060,
   "byteLength": 272
  },
  {
   "buffer": 0,
   "byteOffset": 34332,
   "byteLength": 272
  },
  {
   "buffer": 0,
   "byteOffset": 34604,
   "byteLength": 272
  },
  {
   "buffer": 0,
   "byteOffset": 34876,
   "byteLength": 204
  },
  {
   "buffer": 0,
   "byteOffset": 35080,
   "byteLength": 16
  },
  {
   "buffer": 0,
   "byteOffset": 35096,
   "byteLength": 64
  },
  {
   "buffer": 0,
   "byteOffset": 35160,
   "byteLength": 64
  },
  {
   "buffer": 0,
   "byteOffset": 35224,
   "byteLength": 64
  },
  {
   "buffer": 0,
   "byteOffset": 35288,
   "byteLength": 64
  },
  {
   "buffer": 0,
   "byteOffset": 35352,
   "byteLength": 64
  },
  {
   "buffer": 0,
   "byteOffset": 35416,
   "byteLength": 64
  },
  {
   "buffer": 0,
   "byteOffset": 35480,
   "byteLength": 64
  },
  {
   "buffer": 0,
   "byteOffset": 35544,
   "byteLength": 64
  },
  {
   "buffer": 0,
   "byteOffset": 35608,
   "byteLength": 64
  },
  {
   "buffer": 0,
   "byteOffset": 35672,
   "byteLength": 64
  },
  {
   "buffer": 0,
   "byteOffset": 35736,
   "byteLength": 64
  },
  {
   "buffer": 0,
   "byteOffset": 35800,
   "byteLength": 64
  },
  {
   "buffer": 0,
   "byteOffset": 35864,
   "byteLength": 64
  },
  {
   "buffer": 0,
   "byteOffset": 35928,
   "byteLength": 64
  },
  {
   "buffer": 0,
   "byteOffset": 35992,
   "byteLength": 64
  },
  {
   "buffer": 0,
   "byteOffset": 36056,
   "byteLength": 64
  },
  {
   "buffer": 0,
   "byteOffset": 36120,
   "byteLength": 64
  },
  {
   "buffer": 0,
   "byteOffset": 36184,
   "byteLength": 64
  },
  {
   "buffer": 0,
   "byteOffset": 36248,
   "byteLength": 64
  },
  {
   "buffer": 0,
   "byteOffset": 36312,
   "byteLength": 48
  },
  {
   "buffer": 0,
   "byteOffset": 36360,
   "byteLength": 36
  },
  {
   "buffer": 0,
   "byteOffset": 36396,
   "byteLength": 144
  },
  {
   "buffer": 0,
   "byteOffset": 36540,
   "byteLength": 144
  },
  {
   "buffer": 0,
   "byteOffset": 36684,
   "byteLength": 144
  },
  {
   "buffer": 0,
   "byteOffset": 36828,
   "byteLength": 144
  },
  {
   "buffer": 0,
   "byteOffset": 36972,
   "byteLength": 144
  },
  {
   "buffer": 0,
   "byteOffset": 37116,
   "byteLength": 144
  },
  {
   "buffer": 0,
   "byteOffset": 37260,
   "byteLength": 144
  },
  {
   "buffer": 0,
   "byteOffset": 37404,
   "byteLength": 144
  },
  {
   "buffer": 0,
   "byteOffset": 37548,
   "byteLength": 144
  },
  {
   "buffer": 0,
   "byteOffset": 37692,
   "byteLength": 144
  },
  {
   "buffer": 0,
   "byteOffset": 37836,
   "byteLength": 144
  },
  {
   "buffer": 0,
   "byteOffset": 37980,
   "byteLength": 144
  },
  {
   "buffer": 0,
   "byteOffset": 38124,
   "byteLength": 144
  },
  {
   "buffer": 0,
   "byteOffset": 38268,
   "byteLength": 144
  },
  {
   "buffer": 0,
   "byteOffset": 38412,
   "byteLength": 144
  },
  {
   "buffer": 0,
   "byteOffset": 38556,
   "byteLength": 144
  },
  {
   "buffer": 0,
   "byteOffset": 38700,
   "byteLength": 144
  },
  {
   "buffer": 0,
   "byteOffset": 38844,
   "byteLength": 144
  },
  {
   "buffer": 0,
   "byteOffset": 38988,
   "byteLength": 144
  },
  {
   "buffer": 0,
   "byteOffset": 39132,
   "byteLength": 108
  },
  {
   "buffer": 0,
   "byteOffset": 39240,
   "byteLength": 24
  },
  {
   "buffer": 0,
   "byteOffset": 39264,
   "byteLength": 96
  },
  {
   "buffer": 0,
   "byteOffset": 39360,
   "byteLength": 96
  },
  {
   "buffer": 0,
   "byteOffset": 39456,
   "byteLength": 96
  },
  {
   "buffer": 0,
   "byteOffset": 39552,
   "byteLength": 96
  },
  {
   "buffer": 0,
   "byteOffset": 39648,
   "byteLength": 96
  },
  {
   "buffer": 0,
   "byteOffset": 39744,
   "byteLength": 96
  },
  {
   "buffer": 0,
   "byteOffset": 39840,
   "byteLength": 96
  },
  {
   "buffer": 0,
   "byteOffset": 39936,
   "byteLength": 96
  },
  {
   "buffer": 0,
   "byteOffset": 40032,
   "byteLength": 96
  },
  {
   "buffer": 0,
   "byteOffset": 40128,
   "byteLength": 96
  },
  {
   "buffer": 0,
   "byteOffset": 40224,
   "byteLength": 96
  },
  {
   "buffer": 0,
   "byteOffset": 40320,
   "byteLength": 8
  },
  {
   "buffer": 0,
   "byteOffset": 40328,
   "byteLength": 32
  },
  {
   "buffer": 0,
   "byteOffset": 40360,
   "byteLength": 32
  },
  {
   "buffer": 0,
   "byteOffset": 40392,
   "byteLength": 32
  }
 ],
 "accessors": [
  {
   "bufferView": 0,
   "componentType": 5126,
   "count": 24,
   "type": "VEC3",
   "min": [
    -0.02,
    0.9299999999999999,
    -0.02
   ],
   "max": [
    0.02,
    0.97,
    0.02
   ]
  },
  {
   "bufferView": 1,
   "componentType": 5126,
   "count": 24,
   "type": "VEC3"
  },
  {
   "bufferView": 2,
   "componentType": 5123,
   "count": 24,
   "type": "VEC4"
  },
  {
   "bufferView": 3,
   "componentType": 5126,
   "count": 24,
   "type": "VEC4"
  },
  {
   "bufferView": 4,
   "componentType": 5123,
   "count": 36,
   "type": "SCALAR"
  },
  {
   "bufferView": 5,
   "componentType": 5126,
   "count": 19,
   "type": "MAT4"
  },
  {
   "bufferView": 6,
   "componentType": 5126,
   "count": 17,
   "type": "SCALAR",
   "min": [
    0.0
   ],
   "max": [
    2.0
   ]
  },
  {
   "bufferView": 7,
   "componentType": 5126,
   "count": 17,
   "type": "VEC4"
  },
  {
   "bufferView": 8,
   "componentType": 5126,
   "count": 17,
   "type": "VEC4"
  },
  {
   "bufferView": 9,
   "componentType": 5126,
   "count": 17,
   "type": "VEC4"
  },
  {
   "bufferView": 10,
   "componentType": 5126,
   "count": 17,
   "type": "VEC4"
  },
  {
   "bufferView": 11,
   "componentType": 5126,
   "count": 17,
   "type": "VEC4"
  },
  {
   "bufferView": 12,
   "componentType": 5126,
   "count": 17,
   "type": "VEC4"
  },
  {
   "bufferView": 13,
   "componentType": 5126,
   "count": 17,
   "type": "VEC4"
  },
  {
   "bufferView": 14,
   "componentType": 5126,
   "count": 17,
   "type": "VEC4"
  },
  {
   "bufferView": 15,
   "componentType": 5126,
   "count": 17,
   "type": "VEC4"
  },
  {
   "bufferView": 16,
   "componentType": 5126,
   "count": 17,
   "type": "VEC4"
  },
  {
   "bufferView": 17,
   "componentType": 5126,
   "count": 17,
   "type": "VEC4"
  },
  {
   "bufferView": 18,
   "componentType": 5126,
   "count": 17,
   "type": "VEC4"
  },
  {
   "bufferView": 19,
   "componentType": 5126,
   "count": 17,
   "type": "VEC4"
  },
  {
   "bufferView": 20,
   "componentType": 5126,
   "count": 17,
   "type": "VEC4"
  },
  {
   "bufferView": 21,
   "componentType": 5126,
   "count": 17,
   "type": "VEC4"
  },
  {
   "bufferView": 22,
   "componentType": 5126,
   "count": 17,
   "type": "VEC4"
  },
  {
   "bufferView": 23,
   "componentType": 5126,
   "count": 17,
   "type": "VEC4"
  },
  {
   "bufferView": 24,
   "componentType": 5126,
   "count": 17,
   "type": "VEC4"
  },
  {
   "bufferView": 25,
   "componentType": 5126,
   "count": 17,
   "type": "VEC4"
  },
  {
   "bufferView": 26,
   "componentType": 5126,
   "count": 17,
   "type": "VEC3"
  },
  {
   "bufferView": 27,
   "componentType": 5126,
   "count": 17,
   "type": "SCALAR",
   "min": [
    0.0
   ],
   "max": [
    1.0
   ]
  },
  {
   "bufferView": 28,
   "componentType": 5126,
   "count": 17,
   "type": "VEC4"
  },
  {
   "bufferView": 29,
   "componentType": 5126,
   "count": 17,
   "type": "VEC4"
  },
  {
   "bufferView": 30,
   "componentType": 5126,
   "count": 17,
   "type": "VEC4"
  },
  {
   "bufferView": 31,
   "componentType": 5126,
   "count": 17,
   "type": "VEC4"
  },
  {
   "bufferView": 32,
   "componentType": 5126,
   "count": 17,
   "type": "VEC4"
  },
  {
   "bufferView": 33,
   "componentType": 5126,
   "count": 17,
   "type": "VEC4"
  },
  {
   "bufferView": 34,
   "componentType": 5126,
   "count": 17,
   "type": "VEC4"
  },
  {
   "bufferView": 35,
   "componentType": 5126,
   "count": 17,
   "type": "VEC4"
  },
  {
   "bufferView": 36,
   "componentType": 5126,
   "count": 17,
   "type": "VEC4"
  },
  {
   "bufferView": 37,
   "componentType": 5126,
   "count": 17,
   "type": "VEC4"
  },
  {
   "bufferView": 38,
   "componentType": 5126,
   "count": 17,
   "type": "VEC4"
  },
  {
   "bufferView": 39,
   "componentType": 5126,
   "count": 17,
   "type": "VEC4"
  },
  {
   "bufferView": 40,
   "componentType": 5126,
   "count": 17,
   "type": "VEC4"
  },
  {
   "bufferView": 41,
   "componentType": 5126,
   "count": 17,
   "type": "VEC4"
  },
  {
   "bufferView": 42,
   "componentType": 5126,
   "count": 17,
   "type": "VEC4"
  },
  {
   "bufferView": 43,
   "componentType": 5126,
   "count": 17,
   "type": "VEC4"
  },
  {
   "bufferView": 44,
   "componentType": 5126,
   "count": 17,
   "type": "VEC4"
  },
  {
   "bufferView": 45,
   "componentType": 5126,
   "count": 17,
   "type": "VEC4"
  },
  {
   "bufferView": 46,
   "componentType": 5126,
   "count": 17,
   "type": "VEC4"
  },
  {
   "bufferView": 47,
   "componentType": 5126,
   "count": 17,
   "type": "VEC3"
  },
  {
   "bufferView": 48,
   "componentType": 5126,
   "count": 17,
   "type": "SCALAR",
   "min": [
    0.0
   ],
   "max": [
    0.7
   ]
  },
  {
   "bufferView": 49,
   "componentType": 5126,
   "count": 17,
   "type": "VEC4"
  },
  {
   "bufferView": 50,
   "componentType": 5126,
   "count": 17,
   "type": "VEC4"
  },
  {
   "bufferView": 51,
   "componentType": 5126,
   "count": 17,
   "type": "VEC4"
  },
  {
   "bufferView": 52,
   "componentType": 5126,
   "count": 17,
   "type": "VEC4"
  },
  {
   "bufferView": 53,
   "componentType": 5126,
   "count": 17,
   "type": "VEC4"
  },
  {
   "bufferView": 54,
   "componentType": 5126,
   "count": 17,
   "type": "VEC4"
  },
  {
   "bufferView": 55,
   "componentType": 5126,
   "count": 17,
   "type": "VEC4"
  },
  {
   "bufferView": 56,
   "componentType": 5126,
   "count": 17,
   "type": "VEC4"
  },
  {
   "bufferView": 57,
   "componentType": 5126,
   "count": 17,
   "type": "VEC4"
  },
  {
   "bufferView": 58,
   "componentType": 5126,
   "count": 17,
   "type": "VEC4"
  },
  {
   "bufferView": 59,
   "componentType": 5126,
   "count": 17,
   "type": "VEC4"
  },
  {
   "bufferView": 60,
   "componentType": 5126,
   "count": 17,
   "type": "VEC4"
  },
  {
   "bufferView": 61,
   "componentType": 5126,
   "count": 17,
   "type": "VEC4"
  },
  {
   "bufferView": 62,
   "componentType": 5126,
   "count": 17,
   "type": "VEC4"
  },
  {
   "bufferView": 63,
   "componentType": 5126,
   "count": 17,
   "type": "VEC4"
  },
  {
   "bufferView": 64,
   "componentType": 5126,
   "count": 17,
   "type": "VEC4"
  },
  {
   "bufferView": 65,
   "componentType": 5126,
   "count": 17,
   "type": "VEC4"
  },
  {
   "bufferView": 66,
   "componentType": 5126,
   "count": 17,
   "type": "VEC4"
  },
  {
   "bufferView": 67,
   "componentType": 5126,
   "count": 17,
   "type": "VEC4"
  },
  {
   "bufferView": 68,
   "componentType": 5126,
   "count": 17,
   "type": "VEC3"
  },
  {
   "bufferView": 69,
   "componentType": 5126,
   "count": 17,
   "type": "SCALAR",
   "min": [
    0.0
   ],
   "max": [
    1.0
   ]
  },
  {
   "bufferView": 70,
   "componentType": 5126,
   "count": 17,
   "type": "VEC4"
  },
  {
   "bufferView": 71,
   "componentType": 5126,
   "count": 17,
   "type": "VEC4"
  },
  {
   "bufferView": 72,
   "componentType": 5126,
   "count": 17,
   "type": "VEC4"
  },
  {
   "bufferView": 73,
   "componentType": 5126,
   "count": 17,
   "type": "VEC4"
  },
  {
   "bufferView": 74,
   "componentType": 5126,
   "count": 17,
   "type": "VEC4"
  },
  {
   "bufferView": 75,
   "componentType": 5126,
   "count": 17,
   "type": "VEC4"
  },
  {
   "bufferView": 76,
   "componentType": 5126,
   "count": 17,
   "type": "VEC4"
  },
  {
   "bufferView": 77,
   "componentType": 5126,
   "count": 17,
   "type": "VEC4"
  },
  {
   "bufferView": 78,
   "componentType": 5126,
   "count": 17,
   "type": "VEC4"
  },
  {
   "bufferView": 79,
   "componentType": 5126,
   "count": 17,
   "type": "VEC4"
  },
  {
   "bufferView": 80,
   "componentType": 5126,
   "count": 17,
   "type": "VEC4"
  },
  {
   "bufferView": 81,
   "componentType": 5126,
   "count": 17,
   "type": "VEC4"
  },
  {
   "bufferView": 82,
   "componentType": 5126,
   "count": 17,
   "type": "VEC4"
  },
  {
   "bufferView": 83,
   "componentType": 5126,
   "count": 17,
   "type": "VEC4"
  },
  {
   "bufferView": 84,
   "componentType": 5126,
   "count": 17,
   "type": "VEC4"
  },
  {
   "bufferView": 85,
   "componentType": 5126,
   "count": 17,
   "type": "VEC4"
  },
  {
   "bufferView": 86,
   "componentType": 5126,
   "count": 17,
   "type": "VEC4"
  },
  {
   "bufferView": 87,
   "componentType": 5126,
   "count": 17,
   "type": "VEC4"
  },
  {
   "bufferView": 88,
   "componentType": 5126,
   "count": 17,
   "type": "VEC4"
  },
  {
   "bufferView": 89,
   "componentType": 5126,
   "count": 17,
   "type": "VEC3"
  },
  {
   "bufferView": 90,
   "componentType": 5126,
   "count": 17,
   "type": "SCALAR",
   "min": [
    0.0
   ],
   "max": [
    1.0
   ]
  },
  {
   "bufferView": 91,
   "componentType": 5126,
   "count": 17,
   "type": "VEC4"
  },
  {
   "bufferView": 92,
   "componentType": 5126,
   "count": 17,
   "type": "VEC4"
  },
  {
   "bufferView": 93,
   "componentType": 5126,
   "count": 17,
   "type": "VEC4"
  },
  {
   "bufferView": 94,
   "componentType": 5126,
   "count": 17,
   "type": "VEC4"
  },
  {
   "bufferView": 95,
   "componentType": 5126,
   "count": 17,
   "type": "VEC4"
  },
  {
   "bufferView": 96,
   "componentType": 5126,
   "count": 17,
   "type": "VEC4"
  },
  {
   "bufferView": 97,
   "componentType": 5126,
   "count": 17,
   "type": "VEC4"
  },
  {
   "bufferView": 98,
   "componentType": 5126,
   "count": 17,
   "type": "VEC4"
  },
  {
   "bufferView": 99,
   "componentType": 5126,
   "count": 17,
   "type": "VEC4"
  },
  {
   "bufferView": 100,
   "componentType": 5126,
   "count": 17,
   "type": "VEC4"
  },
  {
   "bufferView": 101,
   "componentType": 5126,
   "count": 17,
   "type": "VEC4"
  },
  {
   "bufferView": 102,
   "componentType": 5126,
   "count": 17,
   "type": "VEC4"
  },
  {
   "bufferView": 103,
   "componentType": 5126,
   "count": 17,
   "type": "VEC4"
  },
  {
   "bufferView": 104,
   "componentType": 5126,
   "count": 17,
   "type": "VEC4"
  },
  {
   "bufferView": 105,
   "componentType": 5126,
   "count": 17,
   "type": "VEC4"
  },
  {
   "bufferView": 106,
   "componentType": 5126,
   "count": 17,
   "type": "VEC4"
  },
  {
   "bufferView": 107,
   "componentType": 5126,
   "count": 17,
   "type": "VEC4"
  },
  {
   "bufferView": 108,
   "componentType": 5126,
   "count": 17,
   "type": "VEC4"
  },
  {
   "bufferView": 109,
   "componentType": 5126,
   "count": 17,
   "type": "VEC4"
  },
  {
   "bufferView": 110,
   "componentType": 5126,
   "count": 17,
   "type": "VEC3"
  },
  {
   "bufferView": 111,
   "componentType": 5126,
   "count": 17,
   "type": "SCALAR",
   "min": [
    0.0
   ],
   "max": [
    1.0
   ]
  },
  {
   "bufferView": 112,
   "componentType": 5126,
   "count": 17,
   "type": "VEC4"
  },
  {
   "bufferView": 113,
   "componentType": 5126,
   "count": 17,
   "type": "VEC4"
  },
  {
   "bufferView": 114,
   "componentType": 5126,
   "count": 17,
   "type": "VEC4"
  },
  {
   "bufferView": 115,
   "componentType": 5126,
   "count": 17,
   "type": "VEC4"
  },
  {
   "bufferView": 116,
   "componentType": 5126,
   "count": 17,
   "type": "VEC4"
  },
  {
   "bufferView": 117,
   "componentType": 5126,
   "count": 17,
   "type": "VEC4"
  },
  {
   "bufferView": 118,
   "componentType": 5126,
   "count": 17,
   "type": "VEC4"
  },
  {
   "bufferView": 119,
   "componentType": 5126,
   "count": 17,
   "type": "VEC4"
  },
  {
   "bufferView": 120,
   "componentType": 5126,
   "count": 17,
   "type": "VEC4"
  },
  {
   "bufferView": 121,
   "componentType": 5126,
   "count": 17,
   "type": "VEC4"
  },
  {
   "bufferView": 122,
   "componentType": 5126,
   "count": 17,
   "type": "VEC4"
  },
  {
   "bufferView": 123,
   "componentType": 5126,
   "count": 17,
   "type": "VEC4"
  },
  {
   "bufferView": 124,
   "componentType": 5126,
   "count": 17,
   "type": "VEC4"
  },
  {
   "bufferView": 125,
   "componentType": 5126,
   "count": 17,
   "type": "VEC4"
  },
  {
   "bufferView": 126,
   "componentType": 5126,
   "count": 17,
   "type": "VEC4"
  },
  {
   "bufferView": 127,
   "componentType": 5126,
   "count": 17,
   "type": "VEC4"
  },
  {
   "bufferView": 128,
   "componentType": 5126,
   "count": 17,
   "type": "VEC4"
  },
  {
   "bufferView": 129,
   "componentType": 5126,
   "count": 17,
   "type": "VEC4"
  },
  {
   "bufferView": 130,
   "componentType": 5126,
   "count": 17,
   "type": "VEC4"
  },
  {
   "bufferView": 131,
   "componentType": 5126,
   "count": 17,
   "type": "VEC3"
  },
  {
   "bufferView": 132,
   "componentType": 5126,
   "count": 4,
   "type": "SCALAR",
   "min": [
    0.0
   ],
   "max": [
    0.4
   ]
  },
  {
   "bufferView": 133,
   "componentType": 5126,
   "count": 4,
   "type": "VEC4"
  },
  {
   "bufferView": 134,
   "componentType": 5126,
   "count": 4,
   "type": "VEC4"
  },
  {
   "bufferView": 135,
   "componentType": 5126,
   "count": 4,
   "type": "VEC4"
  },
  {
   "bufferView": 136,
   "componentType": 5126,
   "count": 4,
   "type": "VEC4"
  },
  {
   "bufferView": 137,
   "componentType": 5126,
   "count": 4,
   "type": "VEC4"
  },
  {
   "bufferView": 138,
   "componentType": 5126,
   "count": 4,
   "type": "VEC4"
  },
  {
   "bufferView": 139,
   "componentType": 5126,
   "count": 4,
   "type": "VEC4"
  },
  {
   "bufferView": 140,
   "componentType": 5126,
   "count": 4,
   "type": "VEC4"
  },
  {
   "bufferView": 141,
   "componentType": 5126,
   "count": 4,
   "type": "VEC4"
  },
  {
   "bufferView": 142,
   "componentType": 5126,
   "count": 4,
   "type": "VEC4"
  },
  {
   "bufferView": 143,
   "componentType": 5126,
   "count": 4,
   "type": "VEC4"
  },
  {
   "bufferView": 144,
   "componentType": 5126,
   "count": 4,
   "type": "VEC4"
  },
  {
   "bufferView": 145,
   "componentType": 5126,
   "count": 4,
   "type": "VEC4"
  },
  {
   "bufferView": 146,
   "componentType": 5126,
   "count": 4,
   "type": "VEC4"
  },
  {
   "bufferView": 147,
   "componentType": 5126,
   "count": 4,
   "type": "VEC4"
  },
  {
   "bufferView": 148,
   "componentType": 5126,
   "count": 4,
   "type": "VEC4"
  },
  {
   "bufferView": 149,
   "componentType": 5126,
   "count": 4,
   "type": "VEC4"
  },
  {
   "bufferView": 150,
   "componentType": 5126,
   "count": 4,
   "type": "VEC4"
  },
  {
   "bufferView": 151,
   "componentType": 5126,
   "count": 4,
   "type": "VEC4"
  },
  {
   "bufferView": 152,
   "componentType": 5126,
   "count": 4,
   "type": "VEC3"
  },
  {
   "bufferView": 153,
   "componentType": 5126,
   "count": 9,
   "type": "SCALAR",
   "min": [
    0.0
   ],
   "max": [
    0.6
   ]
  },
  {
   "bufferView": 154,
   "componentType": 5126,
   "count": 9,
   "type": "VEC4"
  },
  {
   "bufferView": 155,
   "componentType": 5126,
   "count": 9,
   "type": "VEC4"
  },
  {
   "bufferView": 156,
   "componentType": 5126,
   "count": 9,
   "type": "VEC4"
  },
  {
   "bufferView": 157,
   "componentType": 5126,
   "count": 9,
   "type": "VEC4"
  },
  {
   "bufferView": 158,
   "componentType": 5126,
   "count": 9,
   "type": "VEC4"
  },
  {
   "bufferView": 159,
   "componentType": 5126,
   "count": 9,
   "type": "VEC4"
  },
  {
   "bufferView": 160,
   "componentType": 5126,
   "count": 9,
   "type": "VEC4"
  },
  {
   "bufferView": 161,
   "componentType": 5126,
   "count": 9,
   "type": "VEC4"
  },
  {
   "bufferView": 162,
   "componentType": 5126,
   "count": 9,
   "type": "VEC4"
  },
  {
   "bufferView": 163,
   "componentType": 5126,
   "count": 9,
   "type": "VEC4"
  },
  {
   "bufferView": 164,
   "componentType": 5126,
   "count": 9,
   "type": "VEC4"
  },
  {
   "bufferView": 165,
   "componentType": 5126,
   "count": 9,
   "type": "VEC4"
  },
  {
   "bufferView": 166,
   "componentType": 5126,
   "count": 9,
   "type": "VEC4"
  },
  {
   "bufferView": 167,
   "componentType": 5126,
   "count": 9,
   "type": "VEC4"
  },
  {
   "bufferView": 168,
   "componentType": 5126,
   "count": 9,
   "type": "VEC4"
  },
  {
   "bufferView": 169,
   "componentType": 5126,
   "count": 9,
   "type": "VEC4"
  },
  {
   "bufferView": 170,
   "componentType": 5126,
   "count": 9,
   "type": "VEC4"
  },
  {
   "bufferView": 171,
   "componentType": 5126,
   "count": 9,
   "type": "VEC4"
  },
  {
   "bufferView": 172,
   "componentType": 5126,
   "count": 9,
   "type": "VEC4"
  },
  {
   "bufferView": 173,
   "componentType": 5126,
   "count": 9,
   "type": "VEC3"
  },
  {
   "bufferView": 174,
   "componentType": 5126,
   "count": 6,
   "type": "SCALAR",
   "min": [
    0.0
   ],
   "max": [
    0.5
   ]
  },
  {
   "bufferView": 175,
   "componentType": 5126,
   "count": 6,
   "type": "VEC4"
  },
  {
   "bufferView": 176,
   "componentType": 5126,
   "count": 6,
   "type": "VEC4"
  },
  {
   "bufferView": 177,
   "componentType": 5126,
   "count": 6,
   "type": "VEC4"
  },
  {
   "bufferView": 178,
   "componentType": 5126,
   "count": 6,
   "type": "VEC4"
  },
  {
   "bufferView": 179,
   "componentType": 5126,
   "count": 6,
   "type": "VEC4"
  },
  {
   "bufferView": 180,
   "componentType": 5126,
   "count": 6,
   "type": "VEC4"
  },
  {
   "bufferView": 181,
   "componentType": 5126,
   "count": 6,
   "type": "VEC4"
  },
  {
   "bufferView": 182,
   "componentType": 5126,
   "count": 6,
   "type": "VEC4"
  },
  {
   "bufferView": 183,
   "componentType": 5126,
   "count": 6,
   "type": "VEC4"
  },
  {
   "bufferView": 184,
   "componentType": 5126,
   "count": 6,
   "type": "VEC4"
  },
  {
   "bufferView": 185,
   "componentType": 5126,
   "count": 6,
   "type": "VEC4"
  },
  {
   "bufferView": 186,
   "componentType": 5126,
   "count": 2,
   "type": "SCALAR",
   "min": [
    0.0
   ],
   "max": [
    0.1
   ]
  },
  {
   "bufferView": 187,
   "componentType": 5126,
   "count": 2,
   "type": "VEC4"
  },
  {
   "bufferView": 188,
   "componentType": 5126,
   "count": 2,
   "type": "VEC4"
  },
  {
   "bufferView": 189,
   "componentType": 5126,
   "count": 2,
   "type": "VEC4"
  }
 ],
 "animations": [
  {
   "name": "Idle",
   "samplers": [
    {
     "input": 6,
     "output": 7
    },
    {
     "input": 6,
     "output": 8
    },
    {
     "input": 6,
     "output": 9
    },
    {
     "input": 6,
     "output": 10
    },
    {
     "input": 6,
     "output": 11
    },
    {
     "input": 6,
     "output": 12
    },
    {
     "input": 6,
     "output": 13
    },
    {
     "input": 6,
     "output": 14
    },
    {
     "input": 6,
     "output": 15
    },
    {
     "input": 6,
     "output": 16
    },
    {
     "input": 6,
     "output": 17
    },
    {
     "input": 6,
     "output": 18
    },
    {
     "input": 6,
     "output": 19
    },
    {
     "input": 6,
     "output": 20
    },
    {
     "input": 6,
     "output": 21
    },
    {
     "input": 6,
     "output": 22
    },
    {
     "input": 6,
     "output": 23
    },
    {
     "input": 6,
     "output": 24
    },
    {
     "input": 6,
     "output": 25
    },
    {
     "input": 6,
     "output": 26
    }
   ],
   "channels": [
    {
     "sampler": 0,
     "target": {
      "node": 0,
      "path": "rotation"
     }
    },
    {
     "sampler": 1,
     "target": {
      "node": 1,
      "path": "rotation"
     }
    },
    {
     "sampler": 2,
     "target": {
      "node": 2,
      "path": "rotation"
     }
    },
    {
     "sampler": 3,
     "target": {
      "node": 3,
      "path": "rotation"
     }
    },
    {
     "sampler": 4,
     "target": {
      "node": 4,
      "path": "rotation"
     }
    },
    {
     "sampler": 5,
     "target": {
      "node": 5,
      "path": "rotation"
     }
    },
    {
     "sampler": 6,
     "target": {
      "node": 6,
      "path": "rotation"
     }
    },
    {
     "sampler": 7,
     "target": {
      "node": 7,
      "path": "rotation"
     }
    },
    {
     "sampler": 8,
     "target": {
      "node": 8,
      "path": "rotation"
     }
    },
    {
     "sampler": 9,
     "target": {
      "node": 9,
      "path": "rotation"
     }
    },
    {
     "sampler": 10,
     "target": {
      "node": 10,
      "path": "rotation"
     }
    },
    {
     "sampler": 11,
     "target": {
      "node": 11,
      "path": "rotation"
     }
    },
    {
     "sampler": 12,
     "target": {
      "node": 12,
      "path": "rotation"
     }
    },
    {
     "sampler": 13,
     "target": {
      "node": 13,
      "path": "rotation"
     }
    },
    {
     "sampler": 14,
     "target": {
      "node": 14,
      "path": "rotation"
     }
    },
    {
     "sampler": 15,
     "target": {
      "node": 15,
      "path": "rotation"
     }
    },
    {
     "sampler": 16,
     "target": {
      "node": 16,
      "path": "rotation"
     }
    },
    {
     "sampler": 17,
     "target": {
      "node": 17,
      "path": "rotation"
     }
    },
    {
     "sampler": 18,
     "target": {
      "node": 18,
      "path": "rotation"
     }
    },
    {
     "sampler": 19,
     "target": {
      "node": 0,
      "path": "translation"
     }
    }
   ]
  },
  {
   "name": "Walk",
   "samplers": [
    {
     "input": 27,
     "output": 28
    },
    {
     "input": 27,
     "output": 29
    },
    {
     "input": 27,
     "output": 30
    },
    {
     "input": 27,
     "output": 31
    },
    {
     "input": 27,
     "output": 32
    },
    {
     "input": 27,
     "output": 33
    },
    {
     "input": 27,
     "output": 34
    },
    {
     "input": 27,
     "output": 35
    },
    {
     "input": 27,
     "output": 36
    },
    {
     "input": 27,
     "output": 37
    },
    {
     "input": 27,
     "output": 38
    },
    {
     "input": 27,
     "output": 39
    },
    {
     "input": 27,
     "output": 40
    },
    {
     "input": 27,
     "output": 41
    },
    {
     "input": 27,
     "output": 42
    },
    {
     "input": 27,
     "output": 43
    },
    {
     "input": 27,
     "output": 44
    },
    {
     "input": 27,
     "output": 45
    },
    {
     "input": 27,
     "output": 46
    },
    {
     "input": 27,
     "output": 47
    }
   ],
   "channels": [
    {
     "sampler": 0,
     "target": {
      "node": 0,
      "path": "rotation"
     }
    },
    {
     "sampler": 1,
     "target": {
      "node": 1,
      "path": "rotation"
     }
    },
    {
     "sampler": 2,
     "target": {
      "node": 2,
      "path": "rotation"
     }
    },
    {
     "sampler": 3,
     "target": {
      "node": 3,
      "path": "rotation"
     }
    },
    {
     "sampler": 4,
     "target": {
      "node": 4,
      "path": "rotation"
     }
    },
    {
     "sampler": 5,
     "target": {
      "node": 5,
      "path": "rotation"
     }
    },
    {
     "sampler": 6,
     "target": {
      "node": 6,
      "path": "rotation"
     }
    },
    {
     "sampler": 7,
     "target": {
      "node": 7,
      "path": "rotation"
     }
    },
    {
     "sampler": 8,
     "target": {
      "node": 8,
      "path": "rotation"
     }
    },
    {
     "sampler": 9,
     "target": {
      "node": 9,
      "path": "rotation"
     }
    },
    {
     "sampler": 10,
     "target": {
      "node": 10,
      "path": "rotation"
     }
    },
    {
     "sampler": 11,
     "target": {
      "node": 11,
      "path": "rotation"
     }
    },
    {
     "sampler": 12,
     "target": {
      "node": 12,
      "path": "rotation"
     }
    },
    {
     "sampler": 13,
     "target": {
      "node": 13,
      "path": "rotation"
     }
    },
    {
     "sampler": 14,
     "target": {
      "node": 14,
      "path": "rotation"
     }
    },
    {
     "sampler": 15,
     "target": {
      "node": 15,
      "path": "rotation"
     }
    },
    {
     "sampler": 16,
     "target": {
      "node": 16,
      "path": "rotation"
     }
    },
    {
     "sampler": 17,
     "target": {
      "node": 17,
      "path": "rotation"
     }
    },
    {
     "sampler": 18,
     "target": {
      "node": 18,
      "path": "rotation"
     }
    },
    {
     "sampler": 19,
     "target": {
      "node": 0,
      "path": "translation"
     }
    }
   ]
  },
  {
   "name": "Run",
   "samplers": [
    {
     "input": 48,
     "output": 49
    },
    {
     "input": 48,
     "output": 50
    },
    {
     "input": 48,
     "output": 51
    },
    {
     "input": 48,
     "output": 52
    },
    {
     "input": 48,
     "output": 53
    },
    {
     "input": 48,
     "output": 54
    },
    {
     "input": 48,
     "output": 55
    },
    {
     "input": 48,
     "output": 56
    },
    {
     "input": 48,
     "output": 57
    },
    {
     "input": 48,
     "output": 58
    },
    {
     "input": 48,
     "output": 59
    },
    {
     "input": 48,
     "output": 60
    },
    {
     "input": 48,
     "output": 61
    },
    {
     "input": 48,
     "output": 62
    },
    {
     "input": 48,
     "output": 63
    },
    {
     "input": 48,
     "output": 64
    },
    {
     "input": 48,
     "output": 65
    },
    {
     "input": 48,
     "output": 66
    },
    {
     "input": 48,
     "output": 67
    },
    {
     "input": 48,
     "output": 68
    }
   ],
   "channels": [
    {
     "sampler": 0,
     "target": {
      "node": 0,
      "path": "rotation"
     }
    },
    {
     "sampler": 1,
     "target": {
      "node": 1,
      "path": "rotation"
     }
    },
    {
     "sampler": 2,
     "target": {
      "node": 2,
      "path": "rotation"
     }
    },
    {
     "sampler": 3,
     "target": {
      "node": 3,
      "path": "rotation"
     }
    },
    {
     "sampler": 4,
     "target": {
      "node": 4,
      "path": "rotation"
     }
    },
    {
     "sampler": 5,
     "target": {
      "node": 5,
      "path": "rotation"
     }
    },
    {
     "sampler": 6,
     "target": {
      "node": 6,
      "path": "rotation"
     }
    },
    {
     "sampler": 7,
     "target": {
      "node": 7,
      "path": "rotation"
     }
    },
    {
     "sampler": 8,
     "target": {
      "node": 8,
      "path": "rotation"
     }
    },
    {
     "sampler": 9,
     "target": {
      "node": 9,
      "path": "rotation"
     }
    },
    {
     "sampler": 10,
     "target": {
      "node": 10,
      "path": "rotation"
     }
    },
    {
     "sampler": 11,
     "target": {
      "node": 11,
      "path": "rotation"
     }
    },
    {
     "sampler": 12,
     "target": {
      "node": 12,
      "path": "rotation"
     }
    },
    {
     "sampler": 13,
     "target": {
      "node": 13,
      "path": "rotation"
     }
    },
    {
     "sampler": 14,
     "target": {
      "node": 14,
      "path": "rotation"
     }
    },
    {
     "sampler": 15,
     "target": {
      "node": 15,
      "path": "rotation"
     }
    },
    {
     "sampler": 16,
     "target": {
      "node": 16,
      "path": "rotation"
     }
    },
    {
     "sampler": 17,
     "target": {
      "node": 17,
      "path": "rotation"
     }
    },
    {
     "sampler": 18,
     "target": {
      "node": 18,
      "path": "rotation"
     }
    },
    {
     "sampler": 19,
     "target": {
      "node": 0,
      "path": "translation"
     }
    }
   ]
  },
  {
   "name": "StrafeLeft",
   "samplers": [
    {
     "input": 69,
     "output": 70
    },
    {
     "input": 69,
     "output": 71
    },
    {
     "input": 69,
     "output": 72
    },
    {
     "input": 69,
     "output": 73
    },
    {
     "input": 69,
     "output": 74
    },
    {
     "input": 69,
     "output": 75
    },
    {
     "input": 69,
     "output": 76
    },
    {
     "input": 69,
     "output": 77
    },
    {
     "input": 69,
     "output": 78
    },
    {
     "input": 69,
     "output": 79
    },
    {
     "input": 69,
     "output": 80
    },
    {
     "input": 69,
     "output": 81
    },
    {
     "input": 69,
     "output": 82
    },
    {
     "input": 69,
     "output": 83
    },
    {
     "input": 69,
     "output": 84
    },
    {
     "input": 69,
     "output": 85
    },
    {
     "input": 69,
     "output": 86
    },
    {
     "input": 69,
     "output": 87
    },
    {
     "input": 69,
     "output": 88
    },
    {
     "input": 69,
     "output": 89
    }
   ],
   "channels": [
    {
     "sampler": 0,
     "target": {
      "node": 0,
      "path": "rotation"
     }
    },
    {
     "sampler": 1,
     "target": {
      "node": 1,
      "path": "rotation"
     }
    },
    {
     "sampler": 2,
     "target": {
      "node": 2,
      "path": "rotation"
     }
    },
    {
     "sampler": 3,
     "target": {
      "node": 3,
      "path": "rotation"
     }
    },
    {
     "sampler": 4,
     "target": {
      "node": 4,
      "path": "rotation"
     }
    },
    {
     "sampler": 5,
     "target": {
      "node": 5,
      "path": "rotation"
     }
    },
    {
     "sampler": 6,
     "target": {
      "node": 6,
      "path": "rotation"
     }
    },
    {
     "sampler": 7,
     "target": {
      "node": 7,
      "path": "rotation"
     }
    },
    {
     "sampler": 8,
     "target": {
      "node": 8,
      "path": "rotation"
     }
    },
    {
     "sampler": 9,
     "target": {
      "node": 9,
      "path": "rotation"
     }
    },
    {
     "sampler": 10,
     "target": {
      "node": 10,
      "path": "rotation"
     }
    },
    {
     "sampler": 11,
     "target": {
      "node": 11,
      "path": "rotation"
     }
    },
    {
     "sampler": 12,
     "target": {
      "node": 12,
      "path": "rotation"
     }
    },
    {
     "sampler": 13,
     "target": {
      "node": 13,
      "path": "rotation"
     }
    },
    {
     "sampler": 14,
     "target": {
      "node": 14,
      "path": "rotation"
     }
    },
    {
     "sampler": 15,
     "target": {
      "node": 15,
      "path": "rotation"
     }
    },
    {
     "sampler": 16,
     "target": {
      "node": 16,
      "path": "rotation"
     }
    },
    {
     "sampler": 17,
     "target": {
      "node": 17,
      "path": "rotation"
     }
    },
    {
     "sampler": 18,
     "target": {
      "node": 18,
      "path": "rotation"
     }
    },
    {
     "sampler": 19,
     "target": {
      "node": 0,
      "path": "translation"
     }
    }
   ]
  },
  {
   "name": "StrafeRight",
   "samplers": [
    {
     "input": 90,
     "output": 91
    },
    {
     "input": 90,
     "output": 92
    },
    {
     "input": 90,
     "output": 93
    },
    {
     "input": 90,
     "output": 94
    },
    {
     "input": 90,
     "output": 95
    },
    {
     "input": 90,
     "output": 96
    },
    {
     "input": 90,
     "output": 97
    },
    {
     "input": 90,
     "output": 98
    },
    {
     "input": 90,
     "output": 99
    },
    {
     "input": 90,
     "output": 100
    },
    {
     "input": 90,
     "output": 101
    },
    {
     "input": 90,
     "output": 102
    },
    {
     "input": 90,
     "output": 103
    },
    {
     "input": 90,
     "output": 104
    },
    {
     "input": 90,
     "output": 105
    },
    {
     "input": 90,
     "output": 106
    },
    {
     "input": 90,
     "output": 107
    },
    {
     "input": 90,
     "output": 108
    },
    {
     "input": 90,
     "output": 109
    },
    {
     "input": 90,
     "output": 110
    }
   ],
   "channels": [
    {
     "sampler": 0,
     "target": {
      "node": 0,
      "path": "rotation"
     }
    },
    {
     "sampler": 1,
     "target": {
      "node": 1,
      "path": "rotation"
     }
    },
    {
     "sampler": 2,
     "target": {
      "node": 2,
      "path": "rotation"
     }
    },
    {
     "sampler": 3,
     "target": {
      "node": 3,
      "path": "rotation"
     }
    },
    {
     "sampler": 4,
     "target": {
      "node": 4,
      "path": "rotation"
     }
    },
    {
     "sampler": 5,
     "target": {
      "node": 5,
      "path": "rotation"
     }
    },
    {
     "sampler": 6,
     "target": {
      "node": 6,
      "path": "rotation"
     }
    },
    {
     "sampler": 7,
     "target": {
      "node": 7,
      "path": "rotation"
     }
    },
    {
     "sampler": 8,
     "target": {
      "node": 8,
      "path": "rotation"
     }
    },
    {
     "sampler": 9,
     "target": {
      "node": 9,
      "path": "rotation"
     }
    },
    {
     "sampler": 10,
     "target": {
      "node": 10,
      "path": "rotation"
     }
    },
    {
     "sampler": 11,
     "target": {
      "node": 11,
      "path": "rotation"
     }
    },
    {
     "sampler": 12,
     "target": {
      "node": 12,
      "path": "rotation"
     }
    },
    {
     "sampler": 13,
     "target": {
      "node": 13,
      "path": "rotation"
     }
    },
    {
     "sampler": 14,
     "target": {
      "node": 14,
      "path": "rotation"
     }
    },
    {
     "sampler": 15,
     "target": {
      "node": 15,
      "path": "rotation"
     }
    },
    {
     "sampler": 16,
     "target": {
      "node": 16,
      "path": "rotation"
     }
    },
    {
     "sampler": 17,
     "target": {
      "node": 17,
      "path": "rotation"
     }
    },
    {
     "sampler": 18,
     "target": {
      "node": 18,
      "path": "rotation"
     }
    },
    {
     "sampler": 19,
     "target": {
      "node": 0,
      "path": "translation"
     }
    }
   ]
  },
  {
   "name": "WalkBack",
   "samplers": [
    {
     "input": 111,
     "output": 112
    },
    {
     "input": 111,
     "output": 113
    },
    {
     "input": 111,
     "output": 114
    },
    {
     "input": 111,
     "output": 115
    },
    {
     "input": 111,
     "output": 116
    },
    {
     "input": 111,
     "output": 117
    },
    {
     "input": 111,
     "output": 118
    },
    {
     "input": 111,
     "output": 119
    },
    {
     "input": 111,
     "output": 120
    },
    {
     "input": 111,
     "output": 121
    },
    {
     "input": 111,
     "output": 122
    },
    {
     "input": 111,
     "output": 123
    },
    {
     "input": 111,
     "output": 124
    },
    {
     "input": 111,
     "output": 125
    },
    {
     "input": 111,
     "output": 126
    },
    {
     "input": 111,
     "output": 127
    },
    {
     "input": 111,
     "output": 128
    },
    {
     "input": 111,
     "output": 129
    },
    {
     "input": 111,
     "output": 130
    },
    {
     "input": 111,
     "output": 131
    }
   ],
   "channels": [
    {
     "sampler": 0,
     "target": {
      "node": 0,
      "path": "rotation"
     }
    },
    {
     "sampler": 1,
     "target": {
      "node": 1,
      "path": "rotation"
     }
    },
    {
     "sampler": 2,
     "target": {
      "node": 2,
      "path": "rotation"
     }
    },
    {
     "sampler": 3,
     "target": {
      "node": 3,
      "path": "rotation"
     }
    },
    {
     "sampler": 4,
     "target": {
      "node": 4,
      "path": "rotation"
     }
    },
    {
     "sampler": 5,
     "target": {
      "node": 5,
      "path": "rotation"
     }
    },
    {
     "sampler": 6,
     "target": {
      "node": 6,
      "path": "rotation"
     }
    },
    {
     "sampler": 7,
     "target": {
      "node": 7,
      "path": "rotation"
     }
    },
    {
     "sampler": 8,
     "target": {
      "node": 8,
      "path": "rotation"
     }
    },
    {
     "sampler": 9,
     "target": {
      "node": 9,
      "path": "rotation"
     }
    },
    {
     "sampler": 10,
     "target": {
      "node": 10,
      "path": "rotation"
     }
    },
    {
     "sampler": 11,
     "target": {
      "node": 11,
      "path": "rotation"
     }
    },
    {
     "sampler": 12,
     "target": {
      "node": 12,
      "path": "rotation"
     }
    },
    {
     "sampler": 13,
     "target": {
      "node": 13,
      "path": "rotation"
     }
    },
    {
     "sampler": 14,
     "target": {
      "node": 14,
      "path": "rotation"
     }
    },
    {
     "sampler": 15,
     "target": {
      "node": 15,
      "path": "rotation"
     }
    },
    {
     "sampler": 16,
     "target": {
      "node": 16,
      "path": "rotation"
     }
    },
    {
     "sampler": 17,
     "target": {
      "node": 17,
      "path": "rotation"
     }
    },
    {
     "sampler": 18,
     "target": {
      "node": 18,
      "path": "rotation"
     }
    },
    {
     "sampler": 19,
     "target": {
      "node": 0,
      "path": "translation"
     }
    }
   ]
  },
  {
   "name": "Jump",
   "samplers": [
    {
     "input": 132,
     "output": 133
    },
    {
     "input": 132,
     "output": 134
    },
    {
     "input": 132,
     "output": 135
    },
    {
     "input": 132,
     "output": 136
    },
    {
     "input": 132,
     "output": 137
    },
    {
     "input": 132,
     "output": 138
    },
    {
     "input": 132,
     "output": 139
    },
    {
     "input": 132,
     "output": 140
    },
    {
     "input": 132,
     "output": 141
    },
    {
     "input": 132,
     "output": 142
    },
    {
     "input": 132,
     "output": 143
    },
    {
     "input": 132,
     "output": 144
    },
    {
     "input": 132,
     "output": 145
    },
    {
     "input": 132,
     "output": 146
    },
    {
     "input": 132,
     "output": 147
    },
    {
     "input": 132,
     "output": 148
    },
    {
     "input": 132,
     "output": 149
    },
    {
     "input": 132,
     "output": 150
    },
    {
     "input": 132,
     "output": 151
    },
    {
     "input": 132,
     "output": 152
    }
   ],
   "channels": [
    {
     "sampler": 0,
     "target": {
      "node": 0,
      "path": "rotation"
     }
    },
    {
     "sampler": 1,
     "target": {
      "node": 1,
      "path": "rotation"
     }
    },
    {
     "sampler": 2,
     "target": {
      "node": 2,
      "path": "rotation"
     }
    },
    {
     "sampler": 3,
     "target": {
      "node": 3,
      "path": "rotation"
     }
    },
    {
     "sampler": 4,
     "target": {
      "node": 4,
      "path": "rotation"
     }
    },
    {
     "sampler": 5,
     "target": {
      "node": 5,
      "path": "rotation"
     }
    },
    {
     "sampler": 6,
     "target": {
      "node": 6,
      "path": "rotation"
     }
    },
    {
     "sampler": 7,
     "target": {
      "node": 7,
      "path": "rotation"
     }
    },
    {
     "sampler": 8,
     "target": {
      "node": 8,
      "path": "rotation"
     }
    },
    {
     "sampler": 9,
     "target": {
      "node": 9,
      "path": "rotation"
     }
    },
    {
     "sampler": 10,
     "target": {
      "node": 10,
      "path": "rotation"
     }
    },
    {
     "sampler": 11,
     "target": {
      "node": 11,
      "path": "rotation"
     }
    },
    {
     "sampler": 12,
     "target": {
      "node": 12,
      "path": "rotation"
     }
    },
    {
     "sampler": 13,
     "target": {
      "node": 13,
      "path": "rotation"
     }
    },
    {
     "sampler": 14,
     "target": {
      "node": 14,
      "path": "rotation"
     }
    },
    {
     "sampler": 15,
     "target": {
      "node": 15,
      "path": "rotation"
     }
    },
    {
     "sampler": 16,
     "target": {
      "node": 16,
      "path": "rotation"
     }
    },
    {
     "sampler": 17,
     "target": {
      "node": 17,
      "path": "rotation"
     }
    },
    {
     "sampler": 18,
     "target": {
      "node": 18,
      "path": "rotation"
     }
    },
    {
     "sampler": 19,
     "target": {
      "node": 0,
      "path": "translation"
     }
    }
   ]
  },
  {
   "name": "Fall",
   "samplers": [
    {
     "input": 153,
     "output": 154
    },
    {
     "input": 153,
     "output": 155
    },
    {
     "input": 153,
     "output": 156
    },
    {
     "input": 153,
     "output": 157
    },
    {
     "input": 153,
     "output": 158
    },
    {
     "input": 153,
     "output": 159
    },
    {
     "input": 153,
     "output": 160
    },
    {
     "input": 153,
     "output": 161
    },
    {
     "input": 153,
     "output": 162
    },
    {
     "input": 153,
     "output": 163
    },
    {
     "input": 153,
     "output": 164
    },
    {
     "input": 153,
     "output": 165
    },
    {
     "input": 153,
     "output": 166
    },
    {
     "input": 153,
     "output": 167
    },
    {
     "input": 153,
     "output": 168
    },
    {
     "input": 153,
     "output": 169
    },
    {
     "input": 153,
     "output": 170
    },
    {
     "input": 153,
     "output": 171
    },
    {
     "input": 153,
     "output": 172
    },
    {
     "input": 153,
     "output": 173
    }
   ],
   "channels": [
    {
     "sampler": 0,
     "target": {
      "node": 0,
      "path": "rotation"
     }
    },
    {
     "sampler": 1,
     "target": {
      "node": 1,
      "path": "rotation"
     }
    },
    {
     "sampler": 2,
     "target": {
      "node": 2,
      "path": "rotation"
     }
    },
    {
     "sampler": 3,
     "target": {
      "node": 3,
      "path": "rotation"
     }
    },
    {
     "sampler": 4,
     "target": {
      "node": 4,
      "path": "rotation"
     }
    },
    {
     "sampler": 5,
     "target": {
      "node": 5,
      "path": "rotation"
     }
    },
    {
     "sampler": 6,
     "target": {
      "node": 6,
      "path": "rotation"
     }
    },
    {
     "sampler": 7,
     "target": {
      "node": 7,
      "path": "rotation"
     }
    },
    {
     "sampler": 8,
     "target": {
      "node": 8,
      "path": "rotation"
     }
    },
    {
     "sampler": 9,
     "target": {
      "node": 9,
      "path": "rotation"
     }
    },
    {
     "sampler": 10,
     "target": {
      "node": 10,
      "path": "rotation"
     }
    },
    {
     "sampler": 11,
     "target": {
      "node": 11,
      "path": "rotation"
     }
    },
    {
     "sampler": 12,
     "target": {
      "node": 12,
      "path": "rotation"
     }
    },
    {
     "sampler": 13,
     "target": {
      "node": 13,
      "path": "rotation"
     }
    },
    {
     "sampler": 14,
     "target": {
      "node": 14,
      "path": "rotation"
     }
    },
    {
     "sampler": 15,
     "target": {
      "node": 15,
      "path": "rotation"
     }
    },
    {
     "sampler": 16,
     "target": {
      "node": 16,
      "path": "rotation"
     }
    },
    {
     "sampler": 17,
     "target": {
      "node": 17,
      "path": "rotation"
     }
    },
    {
     "sampler": 18,
     "target": {
      "node": 18,
      "path": "rotation"
     }
    },
    {
     "sampler": 19,
     "target": {
      "node": 0,
      "path": "translation"
     }
    }
   ]
  },
  {
   "name": "Slash",
   "samplers": [
    {
     "input": 174,
     "output": 175
    },
    {
     "input": 174,
     "output": 176
    },
    {
     "input": 174,
     "output": 177
    },
    {
     "input": 174,
     "output": 178
    },
    {
     "input": 174,
     "output": 179
    },
    {
     "input": 174,
     "output": 180
    },
    {
     "input": 174,
     "output": 181
    },
    {
     "input": 174,
     "output": 182
    },
    {
     "input": 174,
     "output": 183
    },
    {
     "input": 174,
     "output": 184
    },
    {
     "input": 174,
     "output": 185
    }
   ],
   "channels": [
    {
     "sampler": 0,
     "target": {
      "node": 2,
      "path": "rotation"
     }
    },
    {
     "sampler": 1,
     "target": {
      "node": 3,
      "path": "rotation"
     }
    },
    {
     "sampler": 2,
     "target": {
      "node": 4,
      "path": "rotation"
     }
    },
    {
     "sampler": 3,
     "target": {
      "node": 5,
      "path": "rotation"
     }
    },
    {
     "sampler": 4,
     "target": {
      "node": 6,
      "path": "rotation"
     }
    },
    {
     "sampler": 5,
     "target": {
      "node": 7,
      "path": "rotation"
     }
    },
    {
     "sampler": 6,
     "target": {
      "node": 8,
      "path": "rotation"
     }
    },
    {
     "sampler": 7,
     "target": {
      "node": 12,
      "path": "rotation"
     }
    },
    {
     "sampler": 8,
     "target": {
      "node": 13,
      "path": "rotation"
     }
    },
    {
     "sampler": 9,
     "target": {
      "node": 14,
      "path": "rotation"
     }
    },
    {
     "sampler": 10,
     "target": {
      "node": 15,
      "path": "rotation"
     }
    }
   ]
  },
  {
   "name": "AimUp",
   "samplers": [
    {
     "input": 186,
     "output": 187
    },
    {
     "input": 186,
     "output": 188
    },
    {
     "input": 186,
     "output": 189
    }
   ],
   "channels": [
    {
     "sampler": 0,
     "target": {
      "node": 1,
      "path": "rotation"
     }
    },
    {
     "sampler": 1,
     "target": {
      "node": 2,
      "path": "rotation"
     }
    },
    {
     "sampler": 2,
     "target": {
      "node": 3,
      "path": "rotation"
     }
    }
   ]
  }
 ]
}
