{
 "asset": {
  "version": "2.0",
  "generator": "ludwerk examples/04-obby/tools/make_waver.py"
 },
 "scenes": [
  {
   "name": "Bar",
   "nodes": [
    0,
    2
   ]
  }
 ],
 "nodes": [
  {
   "name": "Bar",
   "mesh": 0,
   "skin": 0
  },
  {
   "name": "Unused"
  },
  {
   "name": "Root",
   "children": [
    3
   ],
   "translation": [
    0.0,
    0.0,
    0.0
   ]
  },
  {
   "name": "Tip",
   "translation": [
    0.0,
    1.0,
    0.0
   ]
  }
 ],
 "skins": [
  {
   "name": "Rig",
   "joints": [
    3,
    2
   ],
   "inverseBindMatrices": 5
  }
 ],
 "animations": [
  {
   "name": "Bend",
   "samplers": [
    {
     "input": 6,
     "output": 7,
     "interpolation": "LINEAR"
    }
   ],
   "channels": [
    {
     "sampler": 0,
     "target": {
      "node": 3,
      "path": "rotation"
     }
    }
   ]
  }
 ],
 "materials": [
  {
   "name": "WaverPaint",
   "pbrMetallicRoughness": {
    "baseColorFactor": [
     0.92,
     0.45,
     0.18,
     1.0
    ],
    "metallicFactor": 0.0,
    "roughnessFactor": 0.55
   }
  }
 ],
 "meshes": [
  {
   "name": "Bar",
   "primitives": [
    {
     "attributes": {
      "POSITION": 0,
      "NORMAL": 1,
      "JOINTS_0": 2,
      "WEIGHTS_0": 3
     },
     "indices": 4,
     "material": 0
    }
   ]
  }
 ],
 "accessors": [
  {
   "componentType": 5126,
   "count": 48,
   "type": "VEC3",
   "min": [
    -0.5,
    0.0,
    -0.06
   ],
   "max": [
    0.5,
    2.0,
    0.06
   ],
   "bufferView": 0
  },
  {
   "componentType": 5126,
   "count": 48,
   "type": "VEC3",
   "bufferView": 1
  },
  {
   "componentType": 5123,
   "count": 48,
   "type": "VEC4",
   "bufferView": 2
  },
  {
   "componentType": 5126,
   "count": 48,
   "type": "VEC4",
   "bufferView": 3
  },
  {
   "componentType": 5123,
   "count": 108,
   "type": "SCALAR",
   "bufferView": 4
  },
  {
   "componentType": 5126,
   "count": 2,
   "type": "MAT4",
   "bufferView": 5
  },
  {
   "componentType": 5126,
   "count": 5,
   "type": "SCALAR",
   "min": [
    0.0
   ],
   "max": [
    1.0
   ],
   "bufferView": 6
  },
  {
   "componentType": 5126,
   "count": 5,
   "type": "VEC4",
   "bufferView": 7
  }
 ],
 "bufferViews": [
  {
   "buffer": 0,
   "byteOffset": 0,
   "byteLength": 576,
   "target": 34962
  },
  {
   "buffer": 0,
   "byteOffset": 576,
   "byteLength": 576,
   "target": 34962
  },
  {
   "buffer": 0,
   "byteOffset": 1152,
   "byteLength": 384,
   "target": 34962
  },
  {
   "buffer": 0,
   "byteOffset": 1536,
   "byteLength": 768,
   "target": 34962
  },
  {
   "buffer": 0,
   "byteOffset": 2304,
   "byteLength": 216,
   "target": 34963
  },
  {
   "buffer": 0,
   "byteOffset": 2520,
   "byteLength": 128
  },
  {
   "buffer": 0,
   "byteOffset": 2648,
   "byteLength": 20
  },
  {
   "buffer": 0,
   "byteOffset": 2668,
   "byteLength": 80
  }
 ],
 "buffers": [
  {
   "byteLength": 2748,
   "uri": "data:application/octet-stream;base64,"
  }
 ]
}
