{
 "asset": {
  "version": "2.0",
  "generator": "examples/38-dubbing/tools/make_head.py"
 },
 "scene": 0,
 "scenes": [
  {
   "nodes": [
    0,
    3
   ]
  }
 ],
 "nodes": [
  {
   "name": "Root",
   "translation": [
    0.0,
    0.0,
    0.0
   ],
   "children": [
    1
   ]
  },
  {
   "name": "Neck",
   "translation": [
    0.0,
    0.3,
    0.0
   ],
   "children": [
    2
   ]
  },
  {
   "name": "Head",
   "translation": [
    0.0,
    0.2,
    0.0
   ]
  },
  {
   "name": "Bust",
   "mesh": 0,
   "skin": 0
  }
 ],
 "skins": [
  {
   "joints": [
    0,
    1,
    2
   ],
   "inverseBindMatrices": 16,
   "skeleton": 0
  }
 ],
 "materials": [
  {
   "name": "Skin",
   "pbrMetallicRoughness": {
    "baseColorFactor": [
     0.86,
     0.66,
     0.54,
     1.0
    ],
    "metallicFactor": 0.0,
    "roughnessFactor": 0.62
   }
  },
  {
   "name": "White",
   "pbrMetallicRoughness": {
    "baseColorFactor": [
     0.93,
     0.93,
     0.9,
     1.0
    ],
    "metallicFactor": 0.0,
    "roughnessFactor": 0.35
   }
  },
  {
   "name": "Dark",
   "pbrMetallicRoughness": {
    "baseColorFactor": [
     0.1,
     0.07,
     0.06,
     1.0
    ],
    "metallicFactor": 0.0,
    "roughnessFactor": 0.55
   }
  },
  {
   "name": "Mouth",
   "pbrMetallicRoughness": {
    "baseColorFactor": [
     0.42,
     0.1,
     0.12,
     1.0
    ],
    "metallicFactor": 0.0,
    "roughnessFactor": 0.5
   }
  }
 ],
 "meshes": [
  {
   "name": "Bust",
   "primitives": [
    {
     "attributes": {
      "POSITION": 0,
      "NORMAL": 1,
      "JOINTS_0": 2,
      "WEIGHTS_0": 3
     },
     "indices": 12,
     "material": 0,
     "targets": [
      {
       "POSITION": 4,
       "NORMAL": 5
      },
      {
       "POSITION": 6,
       "NORMAL": 7
      },
      {
       "POSITION": 8,
       "NORMAL": 9
      },
      {
       "POSITION": 10,
       "NORMAL": 11
      }
     ]
    },
    {
     "attributes": {
      "POSITION": 0,
      "NORMAL": 1,
      "JOINTS_0": 2,
      "WEIGHTS_0": 3
     },
     "indices": 13,
     "material": 1,
     "targets": [
      {
       "POSITION": 4,
       "NORMAL": 5
      },
      {
       "POSITION": 6,
       "NORMAL": 7
      },
      {
       "POSITION": 8,
       "NORMAL": 9
      },
      {
       "POSITION": 10,
       "NORMAL": 11
      }
     ]
    },
    {
     "attributes": {
      "POSITION": 0,
      "NORMAL": 1,
      "JOINTS_0": 2,
      "WEIGHTS_0": 3
     },
     "indices": 14,
     "material": 2,
     "targets": [
      {
       "POSITION": 4,
       "NORMAL": 5
      },
      {
       "POSITION": 6,
       "NORMAL": 7
      },
      {
       "POSITION": 8,
       "NORMAL": 9
      },
      {
       "POSITION": 10,
       "NORMAL": 11
      }
     ]
    },
    {
     "attributes": {
      "POSITION": 0,
      "NORMAL": 1,
      "JOINTS_0": 2,
      "WEIGHTS_0": 3
     },
     "indices": 15,
     "material": 3,
     "targets": [
      {
       "POSITION": 4,
       "NORMAL": 5
      },
      {
       "POSITION": 6,
       "NORMAL": 7
      },
      {
       "POSITION": 8,
       "NORMAL": 9
      },
      {
       "POSITION": 10,
       "NORMAL": 11
      }
     ]
    }
   ],
   "weights": [
    0.0,
    0.0,
    0.0,
    0.0
   ],
   "extras": {
    "targetNames": [
     "JawOpen",
     "Wide",
     "Round",
     "Blink"
    ]
   }
  }
 ],
 "animations": [
  {
   "name": "Idle",
   "samplers": [
    {
     "input": 17,
     "output": 18
    }
   ],
   "channels": [
    {
     "sampler": 0,
     "target": {
      "node": 2,
      "path": "rotation"
     }
    }
   ]
  }
 ],
 "buffers": [
  {
   "byteLength": 212740,
   "uri": "data:application/octet-stream;base64,"
  }
 ],
 "bufferViews": [
  {
   "buffer": 0,
   "byteOffset": 0,
   "byteLength": 16560
  },
  {
   "buffer": 0,
   "byteOffset": 16560,
   "byteLength": 16560
  },
  {
   "buffer": 0,
   "byteOffset": 33120,
   "byteLength": 11040
  },
  {
   "buffer": 0,
   "byteOffset": 44160,
   "byteLength": 22080
  },
  {
   "buffer": 0,
   "byteOffset": 66240,
   "byteLength": 16560
  },
  {
   "buffer": 0,
   "byteOffset": 82800,
   "byteLength": 16560
  },
  {
   "buffer": 0,
   "byteOffset": 99360,
   "byteLength": 16560
  },
  {
   "buffer": 0,
   "byteOffset": 115920,
   "byteLength": 16560
  },
  {
   "buffer": 0,
   "byteOffset": 132480,
   "byteLength": 16560
  },
  {
   "buffer": 0,
   "byteOffset": 149040,
   "byteLength": 16560
  },
  {
   "buffer": 0,
   "byteOffset": 165600,
   "byteLength": 16560
  },
  {
   "buffer": 0,
   "byteOffset": 182160,
   "byteLength": 16560
  },
  {
   "buffer": 0,
   "byteOffset": 198720,
   "byteLength": 12576
  },
  {
   "buffer": 0,
   "byteOffset": 211296,
   "byteLength": 216
  },
  {
   "buffer": 0,
   "byteOffset": 211512,
   "byteLength": 600
  },
  {
   "buffer": 0,
   "byteOffset": 212112,
   "byteLength": 336
  },
  {
   "buffer": 0,
   "byteOffset": 212448,
   "byteLength": 192
  },
  {
   "buffer": 0,
   "byteOffset": 212640,
   "byteLength": 20
  },
  {
   "buffer": 0,
   "byteOffset": 212660,
   "byteLength": 80
  }
 ],
 "accessors": [
  {
   "bufferView": 0,
   "componentType": 5126,
   "count": 1380,
   "type": "VEC3",
   "min": [
    -0.42,
    -0.05000000000000002,
    -0.31
   ],
   "max": [
    0.42,
    1.19,
    0.3549514546234775
   ]
  },
  {
   "bufferView": 1,
   "componentType": 5126,
   "count": 1380,
   "type": "VEC3"
  },
  {
   "bufferView": 2,
   "componentType": 5123,
   "count": 1380,
   "type": "VEC4"
  },
  {
   "bufferView": 3,
   "componentType": 5126,
   "count": 1380,
   "type": "VEC4"
  },
  {
   "bufferView": 4,
   "componentType": 5126,
   "count": 1380,
   "type": "VEC3",
   "min": [
    -0.010283773375691474,
    -0.13192335594013438,
    -0.05506122479622033
   ],
   "max": [
    0.010283773375691474,
    0.004080919462576271,
    0.005548377095388857
   ]
  },
  {
   "bufferView": 5,
   "componentType": 5126,
   "count": 1380,
   "type": "VEC3"
  },
  {
   "bufferView": 6,
   "componentType": 5126,
   "count": 1380,
   "type": "VEC3",
   "min": [
    -0.028257446718581936,
    -0.0032648941194807213,
    -0.013572851605975933
   ],
   "max": [
    0.028257446718581936,
    0.0102234111909143,
    0.001411897410561247
   ]
  },
  {
   "bufferView": 7,
   "componentType": 5126,
   "count": 1380,
   "type": "VEC3"
  },
  {
   "bufferView": 8,
   "componentType": 5126,
   "count": 1380,
   "type": "VEC3",
   "min": [
    -0.056586715438558005,
    -0.02653840949645081,
    -0.012813095070990765
   ],
   "max": [
    0.056586715438558005,
    0.02244251092099503,
    0.024003090747091005
   ]
  },
  {
   "bufferView": 9,
   "componentType": 5126,
   "count": 1380,
   "type": "VEC3"
  },
  {
   "bufferView": 10,
   "componentType": 5126,
   "count": 1380,
   "type": "VEC3",
   "min": [
    -4.326043244529121e-05,
    -0.0905312067685905,
    -0.0015758967064248286
   ],
   "max": [
    4.326043244529121e-05,
    0.008232797289858373,
    0.014820670702300254
   ]
  },
  {
   "bufferView": 11,
   "componentType": 5126,
   "count": 1380,
   "type": "VEC3"
  },
  {
   "bufferView": 12,
   "componentType": 5123,
   "count": 6288,
   "type": "SCALAR"
  },
  {
   "bufferView": 13,
   "componentType": 5123,
   "count": 108,
   "type": "SCALAR"
  },
  {
   "bufferView": 14,
   "componentType": 5123,
   "count": 300,
   "type": "SCALAR"
  },
  {
   "bufferView": 15,
   "componentType": 5123,
   "count": 168,
   "type": "SCALAR"
  },
  {
   "bufferView": 16,
   "componentType": 5126,
   "count": 3,
   "type": "MAT4"
  },
  {
   "bufferView": 17,
   "componentType": 5126,
   "count": 5,
   "type": "SCALAR",
   "min": [
    0.0
   ],
   "max": [
    4.0
   ]
  },
  {
   "bufferView": 18,
   "componentType": 5126,
   "count": 5,
   "type": "VEC4"
  }
 ]
}
