{
 "asset": {
  "version": "2.0",
  "generator": "examples/35-cape/tools/make_figure.py"
 },
 "scene": 0,
 "scenes": [
  {
   "nodes": [
    0,
    16
   ]
  }
 ],
 "nodes": [
  {
   "name": "Body",
   "translation": [
    0.0,
    0.0,
    0.0
   ],
   "children": [
    1,
    6,
    11
   ]
  },
  {
   "name": "Cape_L0",
   "translation": [
    -0.26,
    1.62,
    0.21
   ],
   "children": [
    2
   ]
  },
  {
   "name": "Cape_L1",
   "translation": [
    0.0,
    -0.28,
    0.0
   ],
   "children": [
    3
   ]
  },
  {
   "name": "Cape_L2",
   "translation": [
    0.0,
    -0.28,
    0.0
   ],
   "children": [
    4
   ]
  },
  {
   "name": "Cape_L3",
   "translation": [
    0.0,
    -0.28,
    0.0
   ],
   "children": [
    5
   ]
  },
  {
   "name": "Cape_L4",
   "translation": [
    0.0,
    -0.28,
    0.0
   ]
  },
  {
   "name": "Cape_M0",
   "translation": [
    0.0,
    1.62,
    0.21
   ],
   "children": [
    7
   ]
  },
  {
   "name": "Cape_M1",
   "translation": [
    0.0,
    -0.28,
    0.0
   ],
   "children": [
    8
   ]
  },
  {
   "name": "Cape_M2",
   "translation": [
    0.0,
    -0.28,
    0.0
   ],
   "children": [
    9
   ]
  },
  {
   "name": "Cape_M3",
   "translation": [
    0.0,
    -0.28,
    0.0
   ],
   "children": [
    10
   ]
  },
  {
   "name": "Cape_M4",
   "translation": [
    0.0,
    -0.28,
    0.0
   ]
  },
  {
   "name": "Cape_R0",
   "translation": [
    0.26,
    1.62,
    0.21
   ],
   "children": [
    12
   ]
  },
  {
   "name": "Cape_R1",
   "translation": [
    0.0,
    -0.28,
    0.0
   ],
   "children": [
    13
   ]
  },
  {
   "name": "Cape_R2",
   "translation": [
    0.0,
    -0.28,
    0.0
   ],
   "children": [
    14
   ]
  },
  {
   "name": "Cape_R3",
   "translation": [
    0.0,
    -0.28,
    0.0
   ],
   "children": [
    15
   ]
  },
  {
   "name": "Cape_R4",
   "translation": [
    0.0,
    -0.28,
    0.0
   ]
  },
  {
   "name": "Figure",
   "mesh": 0,
   "skin": 0
  }
 ],
 "skins": [
  {
   "joints": [
    0,
    1,
    2,
    3,
    4,
    5,
    6,
    7,
    8,
    9,
    10,
    11,
    12,
    13,
    14,
    15
   ],
   "inverseBindMatrices": 6,
   "skeleton": 0
  }
 ],
 "materials": [
  {
   "name": "Body",
   "pbrMetallicRoughness": {
    "baseColorFactor": [
     0.42,
     0.45,
     0.5,
     1.0
    ],
    "roughnessFactor": 0.8
   }
  },
  {
   "name": "Cape",
   "doubleSided": true,
   "pbrMetallicRoughness": {
    "baseColorFactor": [
     0.72,
     0.1,
     0.12,
     1.0
    ],
    "roughnessFactor": 0.9
   }
  }
 ],
 "meshes": [
  {
   "name": "Figure",
   "primitives": [
    {
     "attributes": {
      "POSITION": 0,
      "NORMAL": 1,
      "JOINTS_0": 2,
      "WEIGHTS_0": 3
     },
     "indices": 4,
     "material": 0
    },
    {
     "attributes": {
      "POSITION": 0,
      "NORMAL": 1,
      "JOINTS_0": 2,
      "WEIGHTS_0": 3
     },
     "indices": 5,
     "material": 1
    }
   ]
  }
 ],
 "buffers": [
  {
   "byteLength": 4216,
   "uri": "data:application/octet-stream;base64,"
  }
 ],
 "bufferViews": [
  {
   "buffer": 0,
   "byteOffset": 0,
   "byteLength": 720,
   "target": 34962
  },
  {
   "buffer": 0,
   "byteOffset": 720,
   "byteLength": 720,
   "target": 34962
  },
  {
   "buffer": 0,
   "byteOffset": 1440,
   "byteLength": 480,
   "target": 34962
  },
  {
   "buffer": 0,
   "byteOffset": 1920,
   "byteLength": 960,
   "target": 34962
  },
  {
   "buffer": 0,
   "byteOffset": 2880,
   "byteLength": 72,
   "target": 34963
  },
  {
   "buffer": 0,
   "byteOffset": 2952,
   "byteLength": 240,
   "target": 34963
  },
  {
   "buffer": 0,
   "byteOffset": 3192,
   "byteLength": 1024
  }
 ],
 "accessors": [
  {
   "bufferView": 0,
   "componentType": 5126,
   "count": 60,
   "type": "VEC3",
   "min": [
    -0.3,
    0.0,
    -0.17
   ],
   "max": [
    0.3,
    1.72,
    0.21
   ]
  },
  {
   "bufferView": 1,
   "componentType": 5126,
   "count": 60,
   "type": "VEC3"
  },
  {
   "bufferView": 2,
   "componentType": 5123,
   "count": 60,
   "type": "VEC4"
  },
  {
   "bufferView": 3,
   "componentType": 5126,
   "count": 60,
   "type": "VEC4"
  },
  {
   "bufferView": 4,
   "componentType": 5123,
   "count": 36,
   "type": "SCALAR"
  },
  {
   "bufferView": 5,
   "componentType": 5123,
   "count": 120,
   "type": "SCALAR"
  },
  {
   "bufferView": 6,
   "componentType": 5126,
   "count": 16,
   "type": "MAT4"
  }
 ]
}
