{
 "asset": {
  "version": "2.0",
  "generator": "Ludwerk examples/12-ragdoll fixture"
 },
 "scene": 0,
 "scenes": [
  {
   "nodes": [
    0,
    16
   ]
  }
 ],
 "nodes": [
  {
   "name": "Hips",
   "translation": [
    0.0,
    0.95,
    0.0
   ],
   "children": [
    1,
    10,
    13
   ]
  },
  {
   "name": "Spine1",
   "translation": [
    0.0,
    0.19999999999999996,
    0.0
   ],
   "children": [
    2
   ]
  },
  {
   "name": "Spine2",
   "translation": [
    0.0,
    0.20000000000000018,
    0.0
   ],
   "children": [
    3,
    4,
    7
   ]
  },
  {
   "name": "Head",
   "translation": [
    0.0,
    0.22999999999999998,
    0.0
   ]
  },
  {
   "name": "LeftArm",
   "translation": [
    -0.18,
    0.09999999999999987,
    0.0
   ],
   "children": [
    5
   ]
  },
  {
   "name": "LeftForeArm",
   "translation": [
    -0.28,
    0.0,
    0.0
   ],
   "children": [
    6
   ]
  },
  {
   "name": "LeftHand",
   "translation": [
    -0.25999999999999995,
    0.0,
    0.0
   ]
  },
  {
   "name": "RightArm",
   "translation": [
    0.18,
    0.09999999999999987,
    0.0
   ],
   "children": [
    8
   ]
  },
  {
   "name": "RightForeArm",
   "translation": [
    0.28,
    0.0,
    0.0
   ],
   "children": [
    9
   ]
  },
  {
   "name": "RightHand",
   "translation": [
    0.25999999999999995,
    0.0,
    0.0
   ]
  },
  {
   "name": "LeftUpLeg",
   "translation": [
    -0.1,
    -0.029999999999999916,
    0.0
   ],
   "children": [
    11
   ]
  },
  {
   "name": "LeftLeg",
   "translation": [
    0.0,
    -0.42000000000000004,
    0.0
   ],
   "children": [
    12
   ]
  },
  {
   "name": "LeftFoot",
   "translation": [
    0.0,
    -0.42,
    0.0
   ]
  },
  {
   "name": "RightUpLeg",
   "translation": [
    0.1,
    -0.029999999999999916,
    0.0
   ],
   "children": [
    14
   ]
  },
  {
   "name": "RightLeg",
   "translation": [
    0.0,
    -0.42000000000000004,
    0.0
   ],
   "children": [
    15
   ]
  },
  {
   "name": "RightFoot",
   "translation": [
    0.0,
    -0.42,
    0.0
   ]
  },
  {
   "name": "Body",
   "mesh": 0,
   "skin": 0
  }
 ],
 "meshes": [
  {
   "name": "Humanoid",
   "primitives": [
    {
     "attributes": {
      "POSITION": 0,
      "NORMAL": 1,
      "JOINTS_0": 2,
      "WEIGHTS_0": 3
     },
     "indices": 4,
     "material": 0
    }
   ]
  }
 ],
 "materials": [
  {
   "name": "Skin",
   "pbrMetallicRoughness": {
    "baseColorFactor": [
     0.78,
     0.66,
     0.55,
     1.0
    ],
    "metallicFactor": 0.0,
    "roughnessFactor": 0.72
   }
  }
 ],
 "skins": [
  {
   "name": "Humanoid",
   "joints": [
    0,
    1,
    2,
    3,
    4,
    5,
    6,
    7,
    8,
    9,
    10,
    11,
    12,
    13,
    14,
    15
   ],
   "skeleton": 0,
   "inverseBindMatrices": 5
  }
 ],
 "buffers": [
  {
   "byteLength": 8320,
   "uri": "data:application/octet-stream;base64,"
  }
 ],
 "bufferViews": [
  {
   "buffer": 0,
   "byteOffset": 0,
   "byteLength": 1536,
   "target": 34962
  },
  {
   "buffer": 0,
   "byteOffset": 1536,
   "byteLength": 1536,
   "target": 34962
  },
  {
   "buffer": 0,
   "byteOffset": 3072,
   "byteLength": 1024,
   "target": 34962
  },
  {
   "buffer": 0,
   "byteOffset": 4096,
   "byteLength": 2048,
   "target": 34962
  },
  {
   "buffer": 0,
   "byteOffset": 6144,
   "byteLength": 1152,
   "target": 34963
  },
  {
   "buffer": 0,
   "byteOffset": 7296,
   "byteLength": 1024
  }
 ],
 "accessors": [
  {
   "bufferView": 0,
   "componentType": 5126,
   "count": 128,
   "type": "VEC3",
   "min": [
    -0.86,
    0.035,
    -0.13
   ],
   "max": [
    0.86,
    1.8,
    0.16
   ]
  },
  {
   "bufferView": 1,
   "componentType": 5126,
   "count": 128,
   "type": "VEC3"
  },
  {
   "bufferView": 2,
   "componentType": 5123,
   "count": 128,
   "type": "VEC4"
  },
  {
   "bufferView": 3,
   "componentType": 5126,
   "count": 128,
   "type": "VEC4"
  },
  {
   "bufferView": 4,
   "componentType": 5123,
   "count": 576,
   "type": "SCALAR"
  },
  {
   "bufferView": 5,
   "componentType": 5126,
   "count": 16,
   "type": "MAT4"
  }
 ]
}
